<svg width="137" height="138" viewBox="0 0 137 138" fill="none" xmlns="http://www.w3.org/2000/svg">
<path d="M20.5666 26.9137V14.9388C20.5666 11.5807 23.2889 8.8584 26.647 8.8584H45.8758C49.2339 8.8584 51.9562 11.5807 51.9562 14.9388V26.9137M26.9497 26.9137V16.5089C26.9497 15.5494 27.7275 14.7716 28.687 14.7716H43.8361C44.7955 14.7716 45.5733 15.5494 45.5733 16.5089V26.9137M32.4747 75.6486L32.4747 116.543C32.4747 117.502 33.2525 118.28 34.212 118.28H38.5509C39.5103 118.28 40.2881 117.502 40.2881 116.543L40.2881 75.6486L58.1108 127.968C58.3506 128.672 59.0117 129.145 59.7553 129.145L63.3864 129.145C64.5629 129.145 65.3991 128 65.0412 126.879L48.4101 74.8065M32.6108 75.6486L14.7882 127.968C14.5484 128.672 13.8872 129.145 13.1436 129.145L9.5126 129.145C8.33606 129.145 7.49982 128 7.85777 126.879L24.4889 74.8065M36.3815 53.549C40.1174 53.549 43.1459 50.5204 43.1459 46.7845C43.1459 43.0486 40.1174 40.02 36.3815 40.02C32.6455 40.02 29.617 43.0486 29.617 46.7845C29.617 48.0375 29.9576 49.2109 30.5514 50.2171M98.155 94.6585L113.279 88.3666C113.68 88.1999 114.082 88.6018 113.915 89.0026L107.623 104.127M98.155 94.6585L91.8595 109.786C91.6927 110.187 92.0946 110.589 92.4955 110.422L107.623 104.127M98.155 94.6585L107.623 104.127M15.6645 66.2994H27.6826M56.2617 66.2994H44.2436M56.9427 100.554H75.9696M129.226 100.554V36.1988C129.226 35.2398 128.478 34.4623 127.519 34.4616C118.712 34.4555 78.014 34.4279 57.0765 34.4279M58.236 42.8445H118.804C119.764 42.8445 120.541 43.6223 120.541 44.5818V79.4286M76.7154 94.1621H55.3642M70.3464 43.6351C70.177 44.0301 70.182 49.4919 70.236 54.9749C70.2803 59.462 73.9431 63.0582 78.4304 63.0582M96.6059 73.1497L92.1115 68.6553C88.5277 65.0716 83.6671 63.0582 78.5989 63.0582H78.4304M95.1952 43.6351V45.4292C95.1952 48.8773 96.8151 52.125 99.5695 54.1993L101.81 55.8869C103.178 56.9169 104.953 57.2382 106.595 56.753L107.56 56.468C110.542 55.5868 113.533 57.822 113.533 60.932C113.533 62.6429 114.472 64.2159 115.978 65.0284L120.37 67.3987M62.208 93.6582V89.2027C62.208 84.6191 65.6211 80.7529 70.1692 80.1844L70.4727 80.1465C71.3224 80.0403 72.1469 79.7864 72.9092 79.3964C75.1036 78.2737 76.5892 76.126 76.8657 73.6767L77.1825 70.871L78.4304 63.0582M15.779 27.5893V74.106C15.779 74.3459 15.9735 74.5403 16.2133 74.5403H56.5496C56.7894 74.5403 56.9839 74.3459 56.9839 74.106V27.5893C56.9839 27.3495 56.7894 27.155 56.5496 27.155H16.2133C15.9735 27.155 15.779 27.3495 15.779 27.5893ZM47.4265 46.7845C47.4265 52.8845 42.4815 57.8295 36.3815 57.8295C30.2815 57.8295 25.3364 52.8845 25.3364 46.7845C25.3364 40.6845 30.2815 35.7395 36.3815 35.7395C42.4815 35.7395 47.4265 40.6845 47.4265 46.7845ZM129.196 99.3945C129.196 113.924 117.417 125.703 102.887 125.703C88.3571 125.703 76.5782 113.924 76.5782 99.3945C76.5782 84.8645 88.3571 73.0856 102.887 73.0856C117.417 73.0856 129.196 84.8645 129.196 99.3945ZM124.063 99.3945C124.063 111.09 114.582 120.571 102.887 120.571C91.1918 120.571 81.711 111.09 81.711 99.3945C81.711 87.6993 91.1918 78.2184 102.887 78.2184C114.582 78.2184 124.063 87.6993 124.063 99.3945Z" stroke="#FF9350" stroke-width="2"/>
</svg>
