<svg width="137" height="138" viewBox="0 0 137 138" fill="none" xmlns="http://www.w3.org/2000/svg">
<path d="M48.2865 111.896V119.296C48.2865 120.142 48.972 120.827 49.8175 120.827H119.27C120.115 120.827 120.801 120.142 120.801 119.296V111.896M10.8766 112.754V80.4808C10.8766 79.6353 11.562 78.9498 12.4076 78.9498H29.0926C29.9382 78.9498 30.6236 79.6353 30.6236 80.4808V112.754M18.0168 78.7835V33.8657M25.273 33.8657V78.7835M29.6792 22.3463L50.6384 22.3463M50.6384 29.6026L29.6792 29.6026M62.4805 33.8654V47.4531C62.4805 48.2987 61.795 48.9842 60.9494 48.9842H56.7553C55.9097 48.9842 55.2242 48.2987 55.2242 47.4531V33.8654M58.8122 55.9348V48.9442M58.8122 55.9348L47.8566 63.0424C47.4214 63.3247 47.1588 63.8081 47.1588 64.3268V71.5579M58.8122 55.9348L68.6941 63.0369C69.0944 63.3245 69.3317 63.7873 69.3317 64.2801V71.5579M50.4735 70.3524V80.3272C50.4735 81.1728 51.159 81.8583 52.0046 81.8583H64.4863C65.3319 81.8583 66.0173 81.1728 66.0173 80.3272V70.3524C66.0173 69.5068 65.3319 68.8213 64.4863 68.8213H52.0046C51.159 68.8213 50.4735 69.5068 50.4735 70.3524ZM81.9119 75.7696V85.4514C81.9119 86.297 82.5973 86.9825 83.4429 86.9825H95.5752C96.4208 86.9825 97.1063 86.297 97.1063 85.4514V75.7696C97.1063 74.9241 96.4208 74.2386 95.5752 74.2386H83.4429C82.5973 74.2386 81.9119 74.9241 81.9119 75.7696ZM104.366 75.7696V85.4514C104.366 86.297 105.052 86.9825 105.897 86.9825H118.029C118.875 86.9825 119.56 86.297 119.56 85.4514V75.7696C119.56 74.9241 118.875 74.2386 118.029 74.2386H105.897C105.052 74.2386 104.366 74.9241 104.366 75.7696ZM48.425 111.896H121.168C127.014 111.896 131.753 107.157 131.753 101.31C131.753 95.4644 127.014 90.7252 121.168 90.7252H48.4251C42.579 90.7252 37.8398 95.4644 37.8398 101.31C37.8398 107.157 42.579 111.896 48.425 111.896ZM5.24698 114.299V118.309C5.24698 119.154 5.93245 119.84 6.77801 119.84H34.7222C35.5678 119.84 36.2533 119.154 36.2533 118.309V114.299C36.2533 113.454 35.5678 112.768 34.7222 112.768H6.77801C5.93245 112.768 5.24698 113.454 5.24698 114.299ZM30.1176 25.9744C30.1176 30.6538 26.3243 34.4472 21.6449 34.4472C16.9655 34.4472 13.1722 30.6538 13.1722 25.9744C13.1722 21.2951 16.9655 17.5017 21.6449 17.5017C26.3243 17.5017 30.1176 21.2951 30.1176 25.9744ZM58.2453 101.671C58.2453 105.084 55.4786 107.851 52.0657 107.851C48.6528 107.851 45.8861 105.084 45.8861 101.671C45.8861 98.2584 48.6528 95.4917 52.0657 95.4917C55.4786 95.4917 58.2453 98.2584 58.2453 101.671ZM125.74 101.671C125.74 105.084 122.973 107.851 119.561 107.851C116.148 107.851 113.381 105.084 113.381 101.671C113.381 98.2584 116.148 95.4917 119.561 95.4917C122.973 95.4917 125.74 98.2584 125.74 101.671ZM103.242 101.671C103.242 105.084 100.475 107.851 97.0624 107.851C93.6495 107.851 90.8827 105.084 90.8827 101.671C90.8827 98.2584 93.6495 95.4917 97.0624 95.4917C100.475 95.4917 103.242 98.2584 103.242 101.671ZM80.7439 101.671C80.7439 105.084 77.9771 107.851 74.5642 107.851C71.1513 107.851 68.3846 105.084 68.3846 101.671C68.3846 98.2584 71.1513 95.4917 74.5642 95.4917C77.9771 95.4917 80.7439 98.2584 80.7439 101.671ZM67.3252 25.9744C67.3252 30.6538 63.5318 34.4472 58.8524 34.4472C54.1731 34.4472 50.3797 30.6538 50.3797 25.9744C50.3797 21.2951 54.1731 17.5017 58.8524 17.5017C63.5318 17.5017 67.3252 21.2951 67.3252 25.9744Z" stroke="#FF9350" stroke-width="2" stroke-linecap="square"/>
</svg>
