<svg width="137" height="138" viewBox="0 0 137 138" fill="none" xmlns="http://www.w3.org/2000/svg">
<path d="M47.4046 41.8795V14.805C47.4046 13.2383 48.6747 11.9683 50.2414 11.9683L52.2439 11.9683C53.8106 11.9683 55.0807 13.2383 55.0807 14.805V41.8795M28.9712 41.9518C28.8751 33.9276 32.3588 17.533 47.0622 16.149M74.1607 41.9518C74.2568 33.9276 70.7731 17.533 56.0697 16.149M70.2437 48.754C74.7881 52.6635 76.5749 63.6969 68.8431 65.4398C68.8431 65.4398 65.0189 80.8303 51.2426 80.7478C37.4664 80.8303 33.6421 65.4398 33.6421 65.4398C25.9104 63.6969 27.6972 52.6635 32.2416 48.754M64.4065 83.878H72.4668C84.478 83.878 94.215 93.6149 94.215 105.626V125.701H9.65619V105.626C9.65619 93.615 19.3932 83.878 31.4044 83.878H40.9855M64.4065 83.878C58.7169 94.293 45.13 93.6966 40.9855 83.878M64.4065 83.878L62.7567 77.4685M40.9855 83.878L41.6791 78.3497M30.0066 110.034V125.701M30.0066 84.0163V98.567M22.211 110.22L22.211 125.701M22.211 86.2436V98.2319M74.4766 110.455V126.122M74.4766 84.4372V98.9878M82.2721 110.641V126.122M82.2721 86.6644V98.6528M93.7411 125.701H103.156C104.723 125.701 105.993 124.431 105.993 122.864V121.808C105.993 120.68 106.661 119.66 107.695 119.209L111.604 117.503C112.641 117.05 113.848 117.258 114.675 118.03L115.914 119.189C117.035 120.236 118.786 120.203 119.866 119.113L123.8 115.144C124.866 114.068 124.899 112.344 123.875 111.228L122.987 110.262C122.234 109.441 122.03 108.254 122.468 107.229L124.296 102.949C124.742 101.904 125.769 101.226 126.905 101.226H128.507C130.074 101.226 131.344 99.956 131.344 98.3893V92.7429C131.344 91.1763 130.074 89.9062 128.507 89.9062H126.992C125.812 89.9062 124.756 89.1759 124.338 88.0723L122.849 84.1313C122.482 83.1607 122.675 82.0673 123.351 81.2802L124.792 79.6021C125.741 78.4977 125.699 76.8547 124.696 75.7995L121.13 72.0473C120.176 71.0433 118.636 70.8753 117.487 71.6501L115.576 72.9399C114.804 73.4608 113.825 73.5695 112.958 73.2309L108.573 71.5196C107.485 71.0947 106.768 70.0457 106.768 68.8771V67.3912C106.768 65.8245 105.498 64.5545 103.931 64.5545H98.2329C96.6662 64.5545 95.3962 65.8245 95.3962 67.3912V68.4233C95.3962 69.5652 94.7115 70.5958 93.6589 71.0383L89.8089 72.6569C88.8758 73.0491 87.8045 72.9146 86.9975 72.3037L85.6808 71.3072C84.6086 70.4956 83.1138 70.5484 82.1014 71.4337L78.2792 74.7763C77.2275 75.6961 77.0021 77.2448 77.7481 78.4262L78.9177 80.2785C79.4325 81.0938 79.498 82.1147 79.0915 82.989L78.7196 83.7888M94.1556 108.333C96.2577 109.481 98.6692 110.133 101.233 110.133C109.401 110.133 116.022 103.512 116.022 95.3447C116.022 87.1773 109.401 80.5563 101.233 80.5563C95.06 80.5563 89.7703 84.3386 87.5551 89.7122M26.0882 44.7161V45.7457C26.0882 47.3124 27.3582 48.5824 28.9249 48.5824H73.5603C75.127 48.5824 76.397 47.3124 76.397 45.7457V44.7161C76.397 43.1495 75.127 41.8794 73.5603 41.8794H28.9249C27.3582 41.8794 26.0882 43.1495 26.0882 44.7161ZM19.5011 101.584V107.657C19.5011 108.969 20.5648 110.033 21.877 110.033H29.8798C31.4465 110.033 32.7165 108.762 32.7165 107.196V101.584C32.7165 100.018 31.4465 98.7475 29.8798 98.7475H22.3379C20.7712 98.7475 19.5011 100.018 19.5011 101.584ZM84.982 102.005V108.078C84.982 109.39 83.9183 110.453 82.6062 110.453H74.6034C73.0367 110.453 71.7667 109.183 71.7667 107.617V102.005C71.7667 100.438 73.0367 99.1684 74.6034 99.1684H82.1453C83.712 99.1684 84.982 100.438 84.982 102.005Z" stroke="#FF9350" stroke-width="2"/>
</svg>
