<svg width="137" height="137" viewBox="0 0 137 137" fill="none" xmlns="http://www.w3.org/2000/svg">
<path d="M43.2265 87.1191V110.869C43.2265 111.424 43.6763 111.874 44.2312 111.874H48.2078C48.7627 111.874 49.2124 111.424 49.2124 110.869V87.6181M87.2973 86.4051V110.155C87.2973 110.71 87.7471 111.16 88.302 111.16H92.2786C92.8335 111.16 93.2833 110.71 93.2833 110.155V86.9041M37.4702 123.827C37.5682 122.993 37.5197 112.524 37.4776 106.533C37.4736 105.975 37.9247 105.523 38.4825 105.523H43.413M99.4549 125.32V106.528C99.4549 105.973 99.0051 105.523 98.4502 105.523H93.579M49.3558 105.523H87.3528M96.7837 45.1452C102.312 47.3079 101.302 54.9188 95.4006 55.5643M40.0836 45.8214C34.5554 47.9841 35.5657 55.595 41.4667 56.2406M43.2116 32.043C44.2685 24.9646 50.9865 10.6941 69.2288 11.259C86.629 11.259 92.9652 24.9646 94.0222 32.043M54.2637 87.0946H44.2081C30.8918 87.0946 20.0968 97.8895 20.0968 111.206V125.757H116.903V111.206C116.903 97.8895 106.108 87.0946 92.7919 87.0946H82.2367M54.2637 87.0946C61.0572 101.281 76.1426 101.481 82.2367 87.0946M54.2637 87.0946L55.5522 81.6244M82.2367 87.0946L81.4915 81.6244M44.1398 32.5521C53.5412 32.6396 78.0763 32.5534 93.5225 32.4765C95.2815 32.4677 96.6674 33.9604 96.5368 35.7146L93.6078 75.0812C93.3347 78.7526 90.2763 81.5919 86.5948 81.5919H49.7036C45.9703 81.5919 42.8876 78.6748 42.6818 74.9472L40.5464 36.2749C40.439 34.3294 42.1914 32.534 44.1398 32.5521ZM50.2444 57.5574H85.5763C86.686 57.5574 87.5856 56.6578 87.5856 55.5482V46.5138C87.5856 45.4041 86.686 44.5045 85.5763 44.5045H50.2444C49.1347 44.5045 48.2351 45.4041 48.2351 46.5138V55.5482C48.2351 56.6578 49.1347 57.5574 50.2444 57.5574Z" stroke="#FF9350" stroke-width="2"/>
</svg>
