<svg width="137" height="137" viewBox="0 0 137 137" fill="none" xmlns="http://www.w3.org/2000/svg">
<path d="M72.7702 69.9534L74.4873 52.2093C74.5098 51.9767 74.6465 51.7705 74.852 51.6592L118.776 27.855C119.244 27.6013 119.814 27.9403 119.814 28.4728V34.7644C119.814 35.0219 119.673 35.2587 119.447 35.3817L83.7557 54.7977C83.4797 54.9478 83.3369 55.263 83.406 55.5695L86.6495 69.9534M99.6389 85.2348L89.841 70.696C89.7104 70.5022 89.492 70.3861 89.2583 70.3861H75.8594M99.6389 85.2348V99.4885C99.6389 99.8766 99.3242 100.191 98.9362 100.191H68.3274M99.6389 85.2348H76.5621C76.174 85.2348 75.8594 84.9202 75.8594 84.5321V70.3861M68.3274 100.191H38.9022C38.5141 100.191 38.1995 99.8766 38.1995 99.4885V97.5534M68.3274 100.191V82.5448M68.3274 82.5448V71.0888C68.3274 70.7007 68.642 70.3861 69.0301 70.3861H75.8594M68.3274 82.5448H38.9022C38.5141 82.5448 38.1995 82.8594 38.1995 83.2475V91.368M129.369 66.298L131.597 21.8271C131.607 21.6237 131.529 21.4259 131.382 21.2849L125.883 16.0086C125.436 15.58 124.694 15.8966 124.694 16.5156V23.0631C124.694 23.2628 124.609 23.4532 124.46 23.5865L119.993 27.5873C119.821 27.7418 119.735 27.9713 119.765 28.2009L124.694 66.298M122.656 87.6465C122.656 89.267 123.086 91.7956 126.917 91.7956C130.05 91.7956 130.648 88.6369 130.61 87.6465C130.574 86.7393 129.858 83.9093 127.325 83.5781C126.924 83.5257 126.581 83.2133 126.581 82.8094V78.1734M56.5398 94.9168C55.8355 94.9166 37.7745 93.1326 28.4411 104.491M56.5648 87.67C49.462 87.4353 32.4913 90.0498 26.5039 102.377M133.042 72.7035C133.042 76.1851 130.22 79.0074 126.738 79.0074C123.257 79.0074 120.434 76.1851 120.434 72.7035C120.434 69.222 123.257 66.3997 126.738 66.3997C130.22 66.3997 133.042 69.222 133.042 72.7035ZM103.876 113.427C103.876 116.083 101.723 118.236 99.067 118.236C96.4108 118.236 94.2576 116.083 94.2576 113.427C94.2576 110.77 96.4108 108.617 99.067 108.617C101.723 108.617 103.876 110.77 103.876 113.427ZM75.9623 113.427C75.9623 116.083 73.809 118.236 71.1529 118.236C68.4967 118.236 66.3435 116.083 66.3435 113.427C66.3435 110.771 68.4967 108.617 71.1529 108.617C73.809 108.617 75.9623 110.771 75.9623 113.427ZM48.048 113.427C48.048 116.083 45.8948 118.236 43.2386 118.236C40.5825 118.236 38.4292 116.083 38.4292 113.427C38.4292 110.77 40.5825 108.617 43.2386 108.617C45.8948 108.617 48.048 110.77 48.048 113.427ZM60.152 91.2897C60.152 93.2877 58.5322 94.9074 56.5342 94.9074C54.5362 94.9074 52.9165 93.2877 52.9165 91.2897C52.9165 89.2916 54.5362 87.6719 56.5342 87.6719C58.5322 87.6719 60.152 89.2916 60.152 91.2897ZM28.4411 104.773C28.4411 106.096 27.3684 107.169 26.0452 107.169C24.722 107.169 23.6493 106.096 23.6493 104.773C23.6493 103.45 24.722 102.377 26.0452 102.377C27.3684 102.377 28.4411 103.45 28.4411 104.773ZM14.6653 94.8455C18.0297 95.1424 23.5459 97.6747 23.1195 106.133C22.617 116.102 12.744 118.545 4.28814 118.206C3.86667 118.189 3.84208 117.479 4.25136 117.377C13.2154 115.142 22.0688 106.939 14.3787 95.3834C14.2209 95.1462 14.3815 94.8205 14.6653 94.8455ZM43.1532 105.665H99.6329C103.919 105.665 107.394 109.14 107.394 113.427C107.394 117.713 103.919 121.188 99.6329 121.188H43.1532C38.8667 121.188 35.3918 117.713 35.3918 113.427C35.3918 109.14 38.8667 105.665 43.1532 105.665Z" stroke="#FF9350" stroke-width="2"/>
</svg>
