<svg width="137" height="138" viewBox="0 0 137 138" fill="none" xmlns="http://www.w3.org/2000/svg">
<path d="M109.034 88.3562C109.034 87.3461 108.316 85.6284 107.359 85.3059L92.1585 80.1849C90.9107 79.7645 89.5608 80.4497 89.1636 81.7051L86.0837 91.4396C85.4259 93.5188 82.5382 93.6621 81.6778 91.6582L77.2764 81.4078C76.7938 80.2838 75.5304 79.7169 74.3699 80.1038L62.4067 84.1234M57.1447 114.766L57.1447 98.4165M70.6015 60.1652C74.5646 60.6434 82.0599 59.9442 86.12 56.5905C87.517 55.4365 89.9412 55.0857 91.2361 56.3531C93.0649 58.143 95.2437 59.7302 96.8797 59.0414M31.6353 19.4986V30.68C31.6353 31.3041 31.8833 31.9026 32.3246 32.344L38.3153 38.3347M122.056 114.766H15.5683C14.2686 114.766 13.215 115.82 13.215 117.119V122.317C13.215 123.617 14.2686 124.67 15.5683 124.67H122.056C123.356 124.67 124.41 123.617 124.41 122.317V117.119C124.41 115.82 123.356 114.766 122.056 114.766ZM122.056 114.766L121.942 105.984M94.644 96.6452V90.7094C94.644 89.4098 95.6976 88.3562 96.9972 88.3562H119.589C120.888 88.3562 121.942 89.4098 121.942 90.7094V96.6452M94.644 96.6452H121.942M94.644 96.6452V105.984M121.942 96.6452V105.984M121.942 105.984H94.644M94.644 105.984L94.644 114.766M25.2551 114.766L25.2551 109.322C25.2551 108.022 26.3087 106.968 27.6083 106.968H46.8118C48.1114 106.968 49.165 108.022 49.165 109.322L49.165 114.766M32.507 106.968L32.507 81.5343C32.507 80.2347 33.5606 79.1811 34.8603 79.1811H39.5598C40.8595 79.1811 41.9131 80.2347 41.9131 81.5343L41.9131 106.968M32.555 98.4165H14.9436C13.6439 98.4165 12.5903 97.3629 12.5903 96.0633V64.3581C12.5903 63.0585 13.6439 62.0049 14.9436 62.0049H60.0535C61.3532 62.0049 62.4067 63.0585 62.4067 64.3581V96.0633C62.4067 97.3629 61.3532 98.4165 60.0535 98.4165H41.9131M82.3678 44.4328H85.1135C91.6118 44.4328 96.8797 49.7007 96.8797 56.199V63.1041C96.8797 70.3606 90.9972 76.2432 83.7406 76.2432C76.4841 76.2432 70.6016 70.3606 70.6016 63.1041V56.199C70.6016 49.7007 75.8695 44.4328 82.3678 44.4328ZM50.2403 31.7406C50.2403 41.9583 41.9572 50.2415 31.7394 50.2415C21.5217 50.2415 13.2386 41.9583 13.2386 31.7406C13.2386 21.5229 21.5217 13.2397 31.7394 13.2397C41.9572 13.2397 50.2403 21.5229 50.2403 31.7406Z" stroke="#FF9350" stroke-width="2"/>
</svg>
