<svg width="115" height="194" viewBox="0 0 115 194" fill="none" xmlns="http://www.w3.org/2000/svg">
<g clip-path="url(#clip0_115_34)">
<path d="M50.7428 122.314V132.041C50.7428 135.675 52.0786 139.181 54.496 141.893L54.9556 142.409C56.2464 143.857 57.8689 144.971 59.6844 145.654L61.0677 146.175C65.4416 147.823 68.1189 152.251 67.5456 156.889C67.1218 160.318 64.9782 163.294 61.86 164.782L60.7501 165.312C56.3951 167.39 51.2289 166.746 47.5182 163.661L41.7876 158.897C41.343 158.527 40.783 158.325 40.2048 158.325C38.1591 158.325 36.9961 160.665 38.2314 162.296L38.858 163.123C38.9459 163.239 39.0252 163.361 39.0953 163.489L41.8196 168.447C44.8389 173.942 49.861 178.061 55.8407 179.947L56.149 180.044C60.7677 181.5 65.7251 181.484 70.3341 179.997C77.6011 177.653 83.2865 171.822 85.5165 164.519C87.0872 159.375 86.87 153.792 84.8725 148.798C82.9655 144.031 79.5565 140.012 75.1632 137.354L70.0624 134.268C69.8398 134.134 69.6076 134.016 69.3677 133.915C66.2358 132.604 65.1352 128.722 67.113 125.962L69.7281 122.314M27.6128 0.000151172V59.6754M37.4401 0V59.6753M78.3226 0.000151172V59.6754M88.15 0V59.6753M27.4973 61.9957H87.503C92.0701 61.9957 95.4139 66.2984 94.2863 70.7241L82.6691 116.317C81.8789 119.419 79.0861 121.589 75.8858 121.589H39.5328C36.3549 121.589 33.5758 119.448 32.7647 116.376L20.7291 70.7823C19.5571 66.3425 22.9054 61.9957 27.4973 61.9957ZM47.2912 111.961H67.6289C72.0472 111.961 75.6289 108.38 75.6289 103.961V83.6236C75.6289 79.2053 72.0472 75.6236 67.6289 75.6236H47.2912C42.8729 75.6236 39.2912 79.2053 39.2912 83.6236V103.961C39.2912 108.38 42.8729 111.961 47.2912 111.961ZM56.7785 102.474H58.1417C62.56 102.474 66.1417 98.8925 66.1417 94.4742V93.1109C66.1417 88.6926 62.56 85.1109 58.1417 85.1109H56.7785C52.3602 85.1109 48.7785 88.6926 48.7785 93.1109V94.4742C48.7785 98.8925 52.3602 102.474 56.7785 102.474Z" stroke="#FF9350" stroke-width="2" stroke-linecap="square"/>
</g>
<defs>
<clipPath id="clip0_115_34">
<rect width="115" height="194" fill="white"/>
</clipPath>
</defs>
</svg>
