<svg width="1509" height="1004" viewBox="0 0 1509 1004" fill="none" xmlns="http://www.w3.org/2000/svg">
<path fill-rule="evenodd" clip-rule="evenodd" d="M101.583 140.016L101.583 433.09H13.8742L13.8743 64.2355C13.8743 6.0037 87.3676 -19.5148 123.455 26.1867L361.182 327.243L598.907 26.1873C634.994 -19.5144 708.488 6.00397 708.488 64.236L708.488 433.091H620.779L620.779 140.017L409.367 407.75C384.786 438.88 337.579 438.88 312.997 407.75L101.583 140.016Z" stroke="black" stroke-opacity="0.05" stroke-width="4"/>
<path fill-rule="evenodd" clip-rule="evenodd" d="M571.318 655.155L46.7702 655.154L46.7702 567.446L571.318 567.446C639.134 567.446 694.11 622.422 694.11 690.238V704.163C694.11 771.979 639.134 826.955 571.318 826.955L125.713 826.955C106.336 826.955 90.6289 842.663 90.6289 862.039L90.6288 913.862L693.165 913.862L693.165 1001.57L2.91992 1001.57L2.91995 862.039C2.91996 794.222 57.8962 739.246 125.713 739.246L571.318 739.246C590.694 739.246 606.401 723.539 606.401 704.163V690.238C606.401 670.862 590.694 655.155 571.318 655.155Z" stroke="black" stroke-opacity="0.05" stroke-width="4"/>
<path fill-rule="evenodd" clip-rule="evenodd" d="M1383.29 655.155L858.74 655.154V567.446L1383.29 567.446C1451.1 567.446 1506.08 622.422 1506.08 690.238V704.163C1506.08 771.979 1451.1 826.955 1383.29 826.955L937.682 826.955C918.306 826.955 902.599 842.663 902.599 862.039V913.862L1505.14 913.862V1001.57L814.89 1001.57V862.039C814.89 794.222 869.866 739.246 937.682 739.246L1383.29 739.246C1402.66 739.246 1418.37 723.539 1418.37 704.163V690.238C1418.37 670.862 1402.66 655.155 1383.29 655.155Z" stroke="black" stroke-opacity="0.05" stroke-width="4"/>
<path fill-rule="evenodd" clip-rule="evenodd" d="M810.559 141.915V2.71582L898.268 2.71584V141.915C898.268 161.291 913.976 176.998 933.352 176.998L1413.95 176.998V2.71593L1501.66 2.71594V312.164C1501.66 379.98 1446.68 434.957 1378.86 434.957L863.284 434.956V347.247L1378.86 347.248C1398.24 347.248 1413.95 331.54 1413.95 312.164V264.707L933.352 264.707C865.535 264.707 810.559 209.731 810.559 141.915Z" stroke="black" stroke-opacity="0.05" stroke-width="4"/>
</svg>
