<svg width="43" height="53" viewBox="0 0 43 53" fill="none" xmlns="http://www.w3.org/2000/svg">
<path d="M11.7588 12.4994V37.4004C11.7588 39.0572 13.1019 40.4004 14.7588 40.4004H30.8677M11.7588 12.4994V4.54346C11.7588 2.8866 13.1019 1.54346 14.7588 1.54346H38.4273C40.0841 1.54346 41.4273 2.8866 41.4273 4.54346V37.4004C41.4273 39.0572 40.0841 40.4004 38.4273 40.4004H30.8677M11.7588 12.4994H4.19922C2.54236 12.4994 1.19922 13.8425 1.19922 15.4994V48.3563C1.19922 50.0132 2.54236 51.3563 4.19922 51.3563H27.8677C29.5246 51.3563 30.8677 50.0132 30.8677 48.3563V40.4004" stroke="#FF9350" stroke-width="2"/>
</svg>
