<svg width="34" height="45" viewBox="0 0 34 45" fill="none" xmlns="http://www.w3.org/2000/svg">
<path d="M7.38147 34.3755H26.6027M16.989 15.1509L16.989 29.3969M9.16284 23.0439L15.6287 29.3722C16.4094 30.1363 17.6587 30.1326 18.4349 29.3639L24.8169 23.0439M24.4475 1.78223H4.32893C2.55621 1.78223 1.11914 3.2193 1.11914 4.99201V40.1466C1.11914 41.9193 2.55621 43.3564 4.32893 43.3564H29.6525C31.4253 43.3564 32.8623 41.9193 32.8623 40.1466V10.71M24.4475 1.78223V7.76747C24.4475 9.64077 25.6324 10.9773 27.6573 10.9773L32.8623 10.71M24.4475 1.78223L32.8623 10.71" stroke="#FF9350" stroke-width="2"/>
</svg>
