<svg width="536" height="356" viewBox="0 0 536 356" fill="none" xmlns="http://www.w3.org/2000/svg">
<path fill-rule="evenodd" clip-rule="evenodd" d="M35.3158 48.9224L35.3158 153.31H4.07555L4.07557 21.9307C4.07558 1.18963 30.2525 -7.89958 43.1063 8.37843L127.78 115.609L212.453 8.37863C225.307 -7.89944 251.484 1.18973 251.484 21.9309L251.484 153.31H220.244L220.244 48.9227L144.943 144.284C136.187 155.372 119.373 155.372 110.618 144.284L35.3158 48.9224Z" fill="white"/>
<path fill-rule="evenodd" clip-rule="evenodd" d="M202.626 232.405L15.7925 232.405L15.7925 201.165L202.626 201.165C226.781 201.165 246.363 220.746 246.363 244.901V249.861C246.363 274.016 226.781 293.597 202.626 293.597L43.9102 293.597C37.0088 293.597 31.4141 299.192 31.4141 306.093L31.4141 324.551L246.026 324.552L246.026 355.792L0.173828 355.792L0.173837 306.093C0.173841 281.938 19.7553 262.357 43.9102 262.357L202.626 262.357C209.528 262.357 215.123 256.762 215.123 249.861V244.901C215.123 238 209.528 232.405 202.626 232.405Z" fill="white"/>
<path fill-rule="evenodd" clip-rule="evenodd" d="M491.835 232.405L305.001 232.405V201.165L491.835 201.165C515.99 201.165 535.571 220.746 535.571 244.901V249.861C535.571 274.016 515.99 293.597 491.835 293.597L333.119 293.597C326.217 293.597 320.622 299.192 320.622 306.093V324.551L535.234 324.552V355.792L289.382 355.792V306.093C289.382 281.938 308.964 262.357 333.119 262.357L491.835 262.357C498.736 262.357 504.331 256.762 504.331 249.861V244.901C504.331 238 498.736 232.405 491.835 232.405Z" fill="white"/>
<path fill-rule="evenodd" clip-rule="evenodd" d="M287.84 49.5985V0.0185547L319.08 0.0185601V49.5985C319.08 56.4999 324.675 62.0946 331.576 62.0946L502.756 62.0947V0.0185923L533.996 0.0185977V110.238C533.996 134.393 514.414 153.975 490.259 153.975L306.619 153.975V122.734L490.259 122.734C497.161 122.734 502.756 117.14 502.756 110.238V93.3349L331.576 93.3349C307.421 93.3349 287.84 73.7535 287.84 49.5985Z" fill="white"/>
</svg>
