<svg width="120" height="46" viewBox="0 0 120 46" fill="none" xmlns="http://www.w3.org/2000/svg">
<path fill-rule="evenodd" clip-rule="evenodd" d="M56.1279 6.96557L56.1279 20.1444H52.1838L52.1838 3.5579C52.1838 0.939352 55.4886 -0.208154 57.1114 1.84693L67.8014 15.3847L78.4913 1.84696C80.1141 -0.208137 83.4189 0.939364 83.4189 3.55792V20.1444H79.4748V6.96561L69.9682 19.0049C68.8628 20.4047 66.74 20.4047 65.6346 19.0049L56.1279 6.96557Z" fill="#2E2E2E"/>
<path fill-rule="evenodd" clip-rule="evenodd" d="M77.2507 30.1301L53.6631 30.1301V26.186L77.2507 26.186C80.3002 26.186 82.7724 28.6582 82.7724 31.7077V32.3339C82.7724 35.3834 80.3002 37.8556 77.2507 37.8556L57.2129 37.8555C56.3416 37.8555 55.6353 38.5619 55.6353 39.4332V41.7635L82.7299 41.7635L82.7299 45.7076L51.6912 45.7076V39.4332C51.6912 36.3836 54.1634 33.9115 57.2129 33.9115L77.2507 33.9115C78.122 33.9115 78.8283 33.2052 78.8283 32.3339V31.7077C78.8283 30.8364 78.122 30.1301 77.2507 30.1301Z" fill="#2E2E2E"/>
<path fill-rule="evenodd" clip-rule="evenodd" d="M113.763 30.1301L90.1754 30.1301V26.186L113.763 26.186C116.813 26.186 119.285 28.6582 119.285 31.7077V32.3339C119.285 35.3834 116.813 37.8556 113.763 37.8556L93.7252 37.8555C92.8539 37.8555 92.1476 38.5619 92.1476 39.4332V41.7635L119.242 41.7635V45.7076L88.2035 45.7076V39.4332C88.2035 36.3836 90.6757 33.9115 93.7252 33.9115L113.763 33.9115C114.634 33.9115 115.341 33.2052 115.341 32.3339V31.7077C115.341 30.8364 114.634 30.1301 113.763 30.1301Z" fill="#2E2E2E"/>
<path fill-rule="evenodd" clip-rule="evenodd" d="M88.0088 7.05093V0.791504L91.9529 0.791505V7.05094C91.9529 7.92223 92.6592 8.62856 93.5305 8.62856L115.142 8.62856V0.791509L119.086 0.791509V14.7066C119.086 17.7562 116.614 20.2283 113.564 20.2283L90.3797 20.2283V16.2843L113.564 16.2843C114.435 16.2843 115.142 15.5779 115.142 14.7066V12.5726L93.5305 12.5726C90.4809 12.5726 88.0088 10.1005 88.0088 7.05093Z" fill="#2E2E2E"/>
<path fill-rule="evenodd" clip-rule="evenodd" d="M18.7631 8.19668V12.264H8.84303V13.3173C8.84303 14.3503 9.79171 15.443 11.2885 15.443H27.3385C28.8353 15.443 29.784 14.3503 29.784 13.3173V8.19668H33.9431V13.3173C33.9431 16.9293 30.8399 19.6021 27.3385 19.6021H21.3931L21.3929 26.941L19.3134 29.5148C15.5136 29.5148 12.698 32.3424 12.698 35.5155C12.698 38.6887 15.5136 41.5162 19.3134 41.5162C23.1131 41.5162 25.9287 38.6887 25.9287 35.5155H30.0878C30.0878 41.2676 25.1177 45.6754 19.3134 45.6754C13.509 45.6754 8.53889 41.2676 8.53889 35.5155C8.53889 30.4652 12.3703 26.4511 17.2338 25.5469L17.2339 19.6021H11.2885C7.78708 19.6021 4.68388 16.9293 4.68388 13.3173V8.19668H18.7631Z" fill="#FF9350"/>
<path fill-rule="evenodd" clip-rule="evenodd" d="M37.9549 4.98288L0.672364 4.98288L0.672363 0.823734L37.9549 0.82373V4.98288Z" fill="#2E2E2E"/>
</svg>
