<svg width="271" height="101" viewBox="0 0 271 101" fill="none" xmlns="http://www.w3.org/2000/svg">
<path fill-rule="evenodd" clip-rule="evenodd" d="M129.063 14.4229V43.8439H120.258L120.258 6.81545C120.258 0.96971 127.636 -1.59203 131.258 2.99583L155.123 33.2181L178.988 2.99588C182.61 -1.59199 189.988 0.969737 189.988 6.8155L189.988 43.8439H181.183V14.423L159.96 41.3C157.493 44.4251 152.754 44.425 150.286 41.3L129.063 14.4229Z" fill="white" fill-opacity="0.5"/>
<path fill-rule="evenodd" clip-rule="evenodd" d="M176.218 66.1363L123.56 66.1363V57.3314L176.218 57.3314C183.026 57.3314 188.545 62.8503 188.545 69.6583V71.0561C188.545 77.864 183.026 83.3829 176.218 83.3829L131.485 83.3829C129.54 83.3829 127.963 84.9598 127.963 86.9049V92.1072L188.45 92.1072V100.912L119.158 100.912V86.9049C119.158 80.0969 124.677 74.578 131.485 74.5781L176.218 74.5781C178.163 74.5781 179.74 73.0012 179.74 71.0561V69.6583C179.74 67.7131 178.163 66.1363 176.218 66.1363Z" fill="white" fill-opacity="0.5"/>
<path fill-rule="evenodd" clip-rule="evenodd" d="M257.73 66.1363L205.072 66.1363V57.3314L257.73 57.3314C264.538 57.3314 270.056 62.8503 270.056 69.6583V71.0561C270.056 77.864 264.538 83.3829 257.73 83.3829L212.997 83.3829C211.051 83.3829 209.475 84.9598 209.475 86.9049V92.1072L269.962 92.1072V100.912L200.67 100.912V86.9049C200.67 80.0969 206.189 74.578 212.997 74.5781L257.73 74.5781C259.675 74.5781 261.252 73.0012 261.252 71.0561V69.6583C261.252 67.7131 259.675 66.1363 257.73 66.1363Z" fill="white" fill-opacity="0.5"/>
<path fill-rule="evenodd" clip-rule="evenodd" d="M200.235 14.6135V0.639648L209.04 0.63965V14.6135C209.04 16.5586 210.617 18.1354 212.562 18.1354L260.808 18.1354V0.639659L269.613 0.639661V31.7043C269.613 38.5123 264.094 44.0312 257.286 44.0312L205.528 44.0312V35.2263L257.286 35.2263C259.231 35.2263 260.808 33.6495 260.808 31.7043V26.9403L212.562 26.9403C205.754 26.9403 200.235 21.4214 200.235 14.6135Z" fill="white" fill-opacity="0.5"/>
<path fill-rule="evenodd" clip-rule="evenodd" d="M40.9539 17.2439V26.3238H18.808V28.6754C18.808 30.9815 20.9259 33.4207 24.2674 33.4207H60.0979C63.4395 33.4207 65.5574 30.9815 65.5574 28.6754V17.2439H74.8424V28.6754C74.8424 36.7388 67.9147 42.7058 60.0979 42.7058H46.8251L46.8249 59.0894L42.1824 64.8353C33.6997 64.8353 27.4141 71.1476 27.4141 78.2315C27.4141 85.3153 33.6997 91.6277 42.1824 91.6277C50.6651 91.6277 56.9507 85.3153 56.9507 78.2315H66.2357C66.2357 91.0726 55.1403 100.913 42.1824 100.913C29.2245 100.913 18.129 91.0726 18.129 78.2315C18.129 66.9569 26.6824 57.9958 37.5399 55.9772L37.5401 42.7058H24.2674C16.4507 42.7058 9.52297 36.7388 9.52297 28.6754V17.2439H40.9539Z" fill="white" fill-opacity="0.5"/>
<path fill-rule="evenodd" clip-rule="evenodd" d="M83.7984 10.0693L0.567506 10.0693L0.567505 0.78422L83.7984 0.784213V10.0693Z" fill="white" fill-opacity="0.5"/>
</svg>
