<svg width="233" height="88" viewBox="0 0 233 88" fill="none" xmlns="http://www.w3.org/2000/svg">
<path fill-rule="evenodd" clip-rule="evenodd" d="M114.902 12.3496L114.902 36.9823H107.53L107.53 5.98026C107.53 1.08591 113.707 -1.0589 116.741 2.78228L136.721 28.0858L156.702 2.78233C159.735 -1.05887 165.912 1.08594 165.912 5.9803V36.9823H158.54V12.3497L140.771 34.8524C138.705 37.4689 134.737 37.4689 132.671 34.8524L114.902 12.3496Z" fill="white"/>
<path fill-rule="evenodd" clip-rule="evenodd" d="M154.383 55.6466L110.295 55.6466V48.2747L154.383 48.2748C160.083 48.2748 164.704 52.8955 164.704 58.5954V59.7657C164.704 65.4657 160.083 70.0864 154.383 70.0864L116.93 70.0864C115.302 70.0864 113.981 71.4066 113.981 73.0351V77.3908L164.624 77.3908L164.624 84.7627L106.61 84.7627V73.0351C106.61 67.3352 111.23 62.7145 116.93 62.7145L154.383 62.7145C156.012 62.7145 157.332 61.3943 157.332 59.7657V58.5954C157.332 56.9668 156.012 55.6466 154.383 55.6466Z" fill="white"/>
<path fill-rule="evenodd" clip-rule="evenodd" d="M222.629 55.6466L178.541 55.6466V48.2747L222.629 48.2748C228.329 48.2748 232.949 52.8955 232.949 58.5954V59.7657C232.949 65.4657 228.329 70.0864 222.629 70.0864L185.176 70.0864C183.547 70.0864 182.227 71.4066 182.227 73.0351V77.3908L232.87 77.3908V84.7627L174.855 84.7627V73.0351C174.855 67.3352 179.476 62.7145 185.176 62.7145L222.629 62.7145C224.257 62.7145 225.577 61.3943 225.577 59.7657V58.5954C225.577 56.9668 224.257 55.6466 222.629 55.6466Z" fill="white"/>
<path fill-rule="evenodd" clip-rule="evenodd" d="M174.491 12.5091V0.80957L181.863 0.809572V12.5091C181.863 14.1377 183.183 15.4579 184.812 15.4579L225.206 15.4579V0.809579L232.578 0.80958V26.8185C232.578 32.5184 227.957 37.1391 222.257 37.1391L178.923 37.1391V29.7672L222.257 29.7672C223.885 29.7672 225.206 28.447 225.206 26.8185V22.8298L184.812 22.8298C179.112 22.8298 174.491 18.2091 174.491 12.5091Z" fill="white"/>
<path fill-rule="evenodd" clip-rule="evenodd" d="M33.8487 17.4225V25.0247H15.307V26.9935C15.307 28.9243 17.0802 30.9666 19.8779 30.9666H49.8771C52.6748 30.9666 54.448 28.9243 54.448 26.9935V17.4225H62.2219V26.9935C62.2219 33.7446 56.4217 38.7405 49.8771 38.7405H38.7644L38.7642 52.4577L34.8772 57.2684C27.7751 57.2684 22.5125 62.5534 22.5125 68.4844C22.5125 74.4154 27.7751 79.7004 34.8772 79.7004C41.9794 79.7004 47.242 74.4154 47.242 68.4844H55.0159C55.0159 79.2357 45.7263 87.4743 34.8772 87.4743C24.0282 87.4743 14.7386 79.2357 14.7386 68.4844C14.7386 59.0447 21.8999 51.542 30.9903 49.852L30.9905 38.7405H19.8779C13.3334 38.7405 7.53313 33.7446 7.53313 26.9935V17.4225H33.8487Z" fill="#FF9350"/>
<path fill-rule="evenodd" clip-rule="evenodd" d="M69.7203 11.4155L0.0351569 11.4155L0.0351562 3.64161L69.7203 3.6416V11.4155Z" fill="white"/>
</svg>
