<svg width="75" height="75" viewBox="0 0 75 75" fill="none" xmlns="http://www.w3.org/2000/svg">
<path d="M14.4192 43.25C13.5392 43.9177 13.3672 45.1723 14.0349 46.0522C14.7026 46.9321 15.9571 47.1042 16.8371 46.4365L14.4192 43.25ZM37.5166 28.2343L38.7256 29.8275L38.7256 29.8275L37.5166 28.2343ZM40.0127 28.2967L41.2998 26.7659L41.2998 26.7659L40.0127 28.2967ZM16.8371 46.4365L38.7256 29.8275L36.3077 26.641L14.4192 43.25L16.8371 46.4365ZM38.7256 29.8275L58.4043 46.374L60.9786 43.3125L41.2998 26.7659L38.7256 29.8275ZM38.7256 29.8275L38.7256 29.8275L41.2998 26.7659C39.8693 25.5631 37.7966 25.5112 36.3077 26.641L38.7256 29.8275ZM70.6218 37.8968C70.6218 56.1013 55.8641 70.859 37.6596 70.859V74.859C58.0733 74.859 74.6218 58.3105 74.6218 37.8968H70.6218ZM37.6596 70.859C19.4551 70.859 4.69739 56.1013 4.69739 37.8968H0.697388C0.697388 58.3105 17.2459 74.859 37.6596 74.859V70.859ZM4.69739 37.8968C4.69739 19.6923 19.4551 4.93457 37.6596 4.93457V0.93457C17.2459 0.93457 0.697388 17.4831 0.697388 37.8968H4.69739ZM37.6596 4.93457C55.8641 4.93457 70.6218 19.6923 70.6218 37.8968H74.6218C74.6218 17.4831 58.0733 0.93457 37.6596 0.93457V4.93457Z" fill="#FF9350"/>
</svg>
