<svg width="115" height="114" viewBox="0 0 115 114" fill="none" xmlns="http://www.w3.org/2000/svg">
<path d="M81.1585 68.1849L81.4778 67.2372L81.4778 67.2372L81.1585 68.1849ZM96.3589 73.3059L96.0396 74.2536L96.0396 74.2536L96.3589 73.3059ZM96.9608 75.8853C96.9608 76.4376 97.4085 76.8853 97.9608 76.8853C98.5131 76.8853 98.9608 76.4376 98.9608 75.8853H96.9608ZM66.2764 69.4078L67.1953 69.0132L67.1953 69.0132L66.2764 69.4078ZM70.6778 79.6582L71.5967 79.2636L71.5967 79.2636L70.6778 79.6582ZM75.0837 79.4396L74.1303 79.1379L74.1303 79.1379L75.0837 79.4396ZM78.1636 69.7051L77.2102 69.4035L77.2102 69.4035L78.1636 69.7051ZM51.2175 71.1005C50.6936 71.2752 50.4104 71.8415 50.5851 72.3654C50.7597 72.8894 51.326 73.1725 51.85 72.9979L51.2175 71.1005ZM63.3699 68.1038L63.0537 67.1551L63.0537 67.1551L63.3699 68.1038ZM45.1447 102.304C45.1447 102.856 45.5924 103.304 46.1447 103.304C46.697 103.304 47.1447 102.856 47.1447 102.304H45.1447ZM47.1447 86.7202C47.1447 86.1679 46.697 85.7202 46.1447 85.7202C45.5924 85.7202 45.1447 86.1679 45.1447 86.7202H47.1447ZM59.7214 47.1724C59.173 47.1062 58.6749 47.4971 58.6087 48.0454C58.5426 48.5937 58.9334 49.0918 59.4817 49.158L59.7214 47.1724ZM75.12 44.5905L75.7569 45.3615L75.7569 45.3615L75.12 44.5905ZM80.2361 44.3531L80.9356 43.6384L80.9356 43.6384L80.2361 44.3531ZM86.2677 47.963C86.7767 47.7487 87.0156 47.1623 86.8013 46.6533C86.587 46.1443 86.0006 45.9054 85.4916 46.1197L86.2677 47.963ZM21.6353 7.49859C21.6353 6.9463 21.1876 6.49859 20.6353 6.49859C20.0831 6.49859 19.6353 6.9463 19.6353 7.49859H21.6353ZM21.3246 20.344L22.0317 19.6369L22.0317 19.6369L21.3246 20.344ZM80.8393 69.1326L96.0396 74.2536L96.6781 72.3582L81.4778 67.2372L80.8393 69.1326ZM96.9608 75.536V75.8853H98.9608V75.536H96.9608ZM65.3576 69.8023L69.7589 80.0527L71.5967 79.2636L67.1953 69.0132L65.3576 69.8023ZM76.0372 79.7412L79.117 70.0068L77.2102 69.4035L74.1303 79.1379L76.0372 79.7412ZM51.85 72.9979L63.6862 69.0525L63.0537 67.1551L51.2175 71.1005L51.85 72.9979ZM47.1447 102.304V86.7202H45.1447V102.304H47.1447ZM69.7589 80.0527C70.985 82.9082 75.0998 82.704 76.0372 79.7412L74.1303 79.1379C73.752 80.3336 72.0915 80.416 71.5967 79.2636L69.7589 80.0527ZM96.0396 74.2536C96.5901 74.439 96.9608 74.9551 96.9608 75.536H98.9608C98.9608 74.0966 98.0422 72.8178 96.6781 72.3582L96.0396 74.2536ZM81.4778 67.2372C79.6997 66.6382 77.7762 67.6146 77.2102 69.4035L79.117 70.0068C79.3454 69.2849 80.1217 68.8908 80.8393 69.1326L81.4778 67.2372ZM67.1953 69.0132C66.5076 67.4116 64.7074 66.6039 63.0537 67.1551L63.6862 69.0525C64.3535 68.83 65.08 69.156 65.3576 69.8023L67.1953 69.0132ZM71.3678 33.4328H74.1135V31.4328H71.3678V33.4328ZM84.8797 44.199V51.1041H86.8797V44.199H84.8797ZM60.6016 51.1041V44.199H58.6016V51.1041H60.6016ZM72.7406 63.2432C66.0364 63.2432 60.6016 57.8084 60.6016 51.1041H58.6016C58.6016 58.9129 64.9318 65.2432 72.7406 65.2432V63.2432ZM84.8797 51.1041C84.8797 57.8083 79.4449 63.2432 72.7406 63.2432V65.2432C80.5494 65.2432 86.8797 58.9129 86.8797 51.1041H84.8797ZM74.1135 33.4328C80.0595 33.4328 84.8797 38.2529 84.8797 44.199H86.8797C86.8797 37.1484 81.1641 31.4328 74.1135 31.4328V33.4328ZM71.3678 31.4328C64.3172 31.4328 58.6016 37.1484 58.6016 44.199H60.6016C60.6016 38.253 65.4218 33.4328 71.3678 33.4328V31.4328ZM59.4817 49.158C61.5725 49.4103 64.5394 49.3491 67.507 48.798C70.461 48.2494 73.5401 47.1926 75.7569 45.3615L74.4832 43.8195C72.6399 45.3421 69.9412 46.3118 67.1418 46.8316C64.356 47.349 61.5936 47.3983 59.7214 47.1724L59.4817 49.158ZM79.5367 45.0678C80.4756 45.9867 81.5541 46.905 82.6506 47.5043C83.7208 48.0892 85.0258 48.4859 86.2677 47.963L85.4916 46.1197C85.0975 46.2857 84.4952 46.2332 83.6098 45.7493C82.7507 45.2797 81.8255 44.5094 80.9356 43.6384L79.5367 45.0678ZM75.7569 45.3615C76.2883 44.9225 77.0456 44.6191 77.7941 44.5607C78.5445 44.5022 79.1552 44.6944 79.5367 45.0678L80.9356 43.6384C80.0221 42.7444 78.7733 42.4783 77.6386 42.5668C76.5021 42.6555 75.3488 43.1045 74.4832 43.8195L75.7569 45.3615ZM19.6353 7.49859V18.68H21.6353V7.49859H19.6353ZM20.6175 21.0511L26.6082 27.0418L28.0224 25.6276L22.0317 19.6369L20.6175 21.0511ZM19.6353 18.68C19.6353 19.5693 19.9886 20.4222 20.6175 21.0511L22.0317 19.6369C21.7779 19.3831 21.6353 19.0389 21.6353 18.68H19.6353ZM1.21502 105.119V110.317H3.21502V105.119H1.21502ZM4.56826 113.67H111.056V111.67H4.56826V113.67ZM114.41 110.317V105.119H112.41V110.317H114.41ZM111.056 101.766H4.56827V103.766H111.056V101.766ZM114.41 105.119C114.41 103.268 112.908 101.766 111.056 101.766V103.766C111.804 103.766 112.41 104.372 112.41 105.119H114.41ZM111.056 113.67C112.908 113.67 114.41 112.169 114.41 110.317H112.41C112.41 111.064 111.804 111.67 111.056 111.67V113.67ZM1.21502 110.317C1.21502 112.169 2.71632 113.67 4.56826 113.67V111.67C3.82089 111.67 3.21502 111.064 3.21502 110.317H1.21502ZM3.21502 105.119C3.21502 104.372 3.82089 103.766 4.56827 103.766V101.766C2.71632 101.766 1.21502 103.268 1.21502 105.119H3.21502ZM108.589 75.3562H85.9972V77.3562H108.589V75.3562ZM82.644 78.7094V84.6452H84.644V78.7094H82.644ZM111.942 84.6452V78.7094H109.942V84.6452H111.942ZM83.644 85.6452H110.942V83.6452H83.644V85.6452ZM111.942 103.323V93.984H109.942V103.323H111.942ZM111.942 93.984V84.6452H109.942V93.984H111.942ZM82.644 84.6452V93.984H84.644V84.6452H82.644ZM82.644 93.984V102.107H84.644V93.984H82.644ZM110.942 92.984H83.644V94.984H110.942V92.984ZM85.9972 75.3562C84.1453 75.3562 82.644 76.8575 82.644 78.7094H84.644C84.644 77.9621 85.2499 77.3562 85.9972 77.3562V75.3562ZM108.589 77.3562C109.336 77.3562 109.942 77.9621 109.942 78.7094H111.942C111.942 76.8575 110.44 75.3562 108.589 75.3562V77.3562ZM15.2551 102.579V97.3217H13.2551V102.579H15.2551ZM16.6083 95.9684H35.8118V93.9684H16.6083V95.9684ZM37.165 97.3217V102.579H39.165V97.3217H37.165ZM35.8118 95.9684C36.5591 95.9684 37.165 96.5743 37.165 97.3217H39.165C39.165 95.4697 37.6637 93.9684 35.8118 93.9684V95.9684ZM15.2551 97.3217C15.2551 96.5743 15.861 95.9684 16.6083 95.9684V93.9684C14.7564 93.9684 13.2551 95.4697 13.2551 97.3217H15.2551ZM22.507 94.7528V69.5343H20.507V94.7528H22.507ZM23.8603 68.1811H28.5598V66.1811H23.8603V68.1811ZM29.9131 69.5343V94.7528H31.9131V69.5343H29.9131ZM28.5598 68.1811C29.3072 68.1811 29.9131 68.787 29.9131 69.5343H31.9131C31.9131 67.6824 30.4118 66.1811 28.5598 66.1811V68.1811ZM22.507 69.5343C22.507 68.787 23.1129 68.1811 23.8603 68.1811V66.1811C22.0083 66.1811 20.507 67.6824 20.507 69.5343H22.507ZM21.555 85.4165H3.94357V87.4165H21.555V85.4165ZM2.59032 84.0633V52.3581H0.590324V84.0633H2.59032ZM3.94357 51.0049H49.0535V49.0049H3.94357V51.0049ZM50.4067 52.3581V84.0633H52.4067V52.3581H50.4067ZM49.0535 85.4165H31.1484V87.4165H49.0535V85.4165ZM50.4067 84.0633C50.4067 84.8106 49.8009 85.4165 49.0535 85.4165V87.4165C50.9054 87.4165 52.4067 85.9152 52.4067 84.0633H50.4067ZM49.0535 51.0049C49.8009 51.0049 50.4067 51.6108 50.4067 52.3581H52.4067C52.4067 50.5062 50.9054 49.0049 49.0535 49.0049V51.0049ZM2.59032 52.3581C2.59032 51.6108 3.19619 51.0049 3.94357 51.0049V49.0049C2.09162 49.0049 0.590324 50.5062 0.590324 52.3581H2.59032ZM3.94357 85.4165C3.19619 85.4165 2.59032 84.8106 2.59032 84.0633H0.590324C0.590324 85.9152 2.09162 87.4165 3.94357 87.4165V85.4165ZM38.2403 19.7406C38.2403 29.4061 30.4049 37.2415 20.7394 37.2415V39.2415C31.5095 39.2415 40.2403 30.5106 40.2403 19.7406H38.2403ZM20.7394 37.2415C11.074 37.2415 3.23858 29.4061 3.23858 19.7406H1.23858C1.23858 30.5106 9.96941 39.2415 20.7394 39.2415V37.2415ZM3.23858 19.7406C3.23858 10.0751 11.074 2.23975 20.7394 2.23975V0.239746C9.96941 0.239746 1.23858 8.97058 1.23858 19.7406H3.23858ZM20.7394 2.23975C30.4049 2.23975 38.2403 10.0751 38.2403 19.7406H40.2403C40.2403 8.97058 31.5095 0.239746 20.7394 0.239746V2.23975Z" fill="#FF9350"/>
</svg>
