<svg width="25" height="26" viewBox="0 0 25 26" fill="none" xmlns="http://www.w3.org/2000/svg">
<rect width="25" height="25" transform="translate(0 0.619873)" fill="white"/>
<path d="M21.9849 6.17432C23.0936 6.17432 24.0136 7.02127 24.1144 8.1036V9.30249L12.6723 14.768C12.5633 14.8201 12.4366 14.8201 12.3275 14.768L0.894075 9.30661L0.895276 8.09842C0.998608 7.0187 1.9082 6.17432 3.015 6.17432H21.9849Z" fill="#2F2F2F"/>
<path d="M0.892754 10.6359L0.885498 17.9361C0.885498 19.1122 1.83891 20.0656 3.015 20.0656H21.9849C23.161 20.0656 24.1144 19.1122 24.1144 17.9361V10.6324L13.1896 15.8508C12.7534 16.0591 12.2464 16.0591 11.8103 15.8508L0.892754 10.6359Z" fill="#2F2F2F"/>
</svg>
