<svg width="21" height="19" viewBox="0 0 21 19" fill="none" xmlns="http://www.w3.org/2000/svg">
<path fill-rule="evenodd" clip-rule="evenodd" d="M5.52001 1.56812C5.15983 0.790102 4.78085 0.77453 4.43828 0.760841C4.15792 0.749253 3.83727 0.75001 3.51699 0.75001C3.19633 0.75001 2.67551 0.866937 2.23511 1.33444C1.79432 1.80196 0.552368 2.93207 0.552368 5.2305C0.552368 7.52914 2.27526 9.75017 2.51529 10.0622C2.75574 10.3736 5.84112 15.2412 10.7271 17.1137C14.7882 18.6699 15.6146 18.3604 16.496 18.2824C17.3774 18.2046 19.3403 17.1526 19.7408 16.0617C20.1415 14.971 20.1415 14.0359 20.0214 13.8407C19.9012 13.646 19.5806 13.5291 19.0998 13.2956C18.6189 13.0619 16.2555 11.9316 15.8149 11.7757C15.3741 11.62 15.0537 11.5423 14.733 12.01C14.4125 12.4771 13.4918 13.5291 13.2112 13.8407C12.9309 14.1529 12.6503 14.1919 12.1696 13.9582C11.6887 13.7238 10.1404 13.2309 8.30361 11.6396C6.87443 10.4013 5.90966 8.87214 5.62909 8.4044C5.34873 7.93726 5.59916 7.68421 5.8402 7.45128C6.05619 7.24195 6.3211 6.90581 6.56155 6.63316C6.80141 6.36034 6.88144 6.16565 7.04167 5.85402C7.20211 5.54221 7.12189 5.26937 7.00176 5.03569C6.88144 4.80203 5.94749 2.49192 5.52001 1.56812Z" fill="white"/>
</svg>
