<svg width="26" height="26" viewBox="0 0 26 26" fill="none" xmlns="http://www.w3.org/2000/svg">
<rect width="25" height="25" transform="translate(0.466553 0.619873)" fill="white"/>
<path fill-rule="evenodd" clip-rule="evenodd" d="M7.4336 3.91682C7.01857 3.02033 6.58188 3.00239 6.18714 2.98661C5.86409 2.97326 5.49461 2.97413 5.12556 2.97413C4.75606 2.97413 4.15593 3.10887 3.64847 3.64756C3.14055 4.18627 1.70947 5.48849 1.70947 8.13692C1.70947 10.7856 3.69473 13.3449 3.97131 13.7044C4.24838 14.0632 7.80361 19.6721 13.4337 21.8297C18.1132 23.6229 19.0654 23.2662 20.081 23.1764C21.0967 23.0868 23.3585 21.8746 23.82 20.6175C24.2817 19.3607 24.2817 18.2833 24.1432 18.0583C24.0048 17.8339 23.6353 17.6992 23.0814 17.4302C22.5273 17.1609 19.8039 15.8585 19.2963 15.6789C18.7883 15.4994 18.4191 15.4098 18.0496 15.9488C17.6803 16.4871 16.6194 17.6992 16.2961 18.0583C15.973 18.418 15.6497 18.4629 15.0958 18.1937C14.5417 17.9236 12.7575 17.3557 10.6411 15.522C8.99427 14.0952 7.88258 12.3331 7.55929 11.7941C7.23623 11.2559 7.5248 10.9643 7.80254 10.6959C8.05143 10.4547 8.35668 10.0674 8.63375 9.75319C8.91014 9.43881 9.00235 9.21447 9.18699 8.85539C9.37185 8.4961 9.27942 8.18172 9.14099 7.91244C9.00235 7.6432 7.92618 4.9813 7.4336 3.91682Z" fill="#2F2F2F"/>
</svg>
