<svg width="20" height="17" viewBox="0 0 20 17" fill="none" xmlns="http://www.w3.org/2000/svg">
<path d="M7.89763 15.484L8.31145 11.3708C8.32687 11.2175 8.39674 11.0749 8.50837 10.9688L16.1104 3.74329C16.2232 3.63604 16.0842 3.45794 15.9528 3.54137L6.08521 9.80551C5.92087 9.90984 5.71813 9.93416 5.53378 9.87165L1.31855 8.44256C0.746215 8.24852 0.73291 7.44387 1.29852 7.23101L18.7442 0.665603C19.4107 0.414805 20.0909 0.999902 19.9425 1.69634L16.9622 15.6885C16.8054 16.4246 15.9377 16.7492 15.3363 16.2967L11.1473 13.1444C11.0969 13.1065 11.0264 13.1107 10.9809 13.1544L8.33188 15.6955C8.1592 15.8612 7.87368 15.7221 7.89763 15.484Z" fill="white"/>
</svg>
