<svg width="25" height="26" viewBox="0 0 25 26" fill="none" xmlns="http://www.w3.org/2000/svg">
<rect width="25" height="25" transform="translate(0 0.619873)" fill="white"/>
<path d="M9.59067 21.1036L10.0675 16.364C10.0853 16.1874 10.1658 16.0231 10.2944 15.9008L19.0541 7.57498C19.1841 7.4514 19.0239 7.24618 18.8725 7.34231L7.50225 14.5604C7.31288 14.6806 7.07927 14.7086 6.86684 14.6366L2.00971 12.9899C1.35021 12.7663 1.33488 11.8391 1.98662 11.5938L22.089 4.02862C22.8569 3.73963 23.6407 4.41382 23.4698 5.21631L20.0356 21.3393C19.855 22.1874 18.855 22.5614 18.1621 22.04L13.3352 18.4078C13.2771 18.364 13.1959 18.3689 13.1434 18.4192L10.091 21.3473C9.89206 21.5382 9.56307 21.378 9.59067 21.1036Z" fill="#2F2F2F"/>
</svg>
