<svg width="21" height="13" viewBox="0 0 21 13" fill="none" xmlns="http://www.w3.org/2000/svg">
<path d="M11.437 12.751C4.78297 12.751 0.989023 8.10711 0.833374 0.367345H4.17983C4.28684 6.04318 6.73831 8.44449 8.68392 8.94063V0.367345H11.8261V5.25928C13.7425 5.0509 15.766 2.81827 16.4469 0.357422H19.5794C19.3239 1.63128 18.8137 2.83772 18.0806 3.90137C17.3475 4.96503 16.4072 5.86305 15.3185 6.53932C16.5334 7.15614 17.6064 8.02868 18.4666 9.09939C19.3268 10.1701 19.9548 11.4146 20.309 12.751H16.8555C16.1162 10.3993 14.2678 8.57348 11.8261 8.32542V12.751H11.4467H11.437Z" fill="white"/>
</svg>
