<svg width="25" height="26" viewBox="0 0 25 26" fill="none" xmlns="http://www.w3.org/2000/svg">
<rect width="25" height="25" transform="translate(0 0.619873)" fill="white"/>
<path d="M13.4976 20.2604C5.83034 20.2604 1.45865 14.9093 1.2793 5.99093H5.13536C5.25866 12.5311 8.08345 15.2981 10.3253 15.8698V5.99093H13.946V11.6278C16.1543 11.3877 18.4858 8.81509 19.2705 5.97949H22.88C22.5857 7.44733 21.9977 8.83749 21.153 10.0631C20.3082 11.2888 19.2247 12.3235 17.9702 13.1028C19.3702 13.8135 20.6066 14.8189 21.5978 16.0527C22.589 17.2865 23.3125 18.7205 23.7207 20.2604H19.7413C18.8894 17.5505 16.7596 15.4467 13.946 15.1609V20.2604H13.5088H13.4976Z" fill="#2F2F2F"/>
</svg>
