<svg width="19" height="19" viewBox="0 0 19 19" fill="none" xmlns="http://www.w3.org/2000/svg">
<path fill-rule="evenodd" clip-rule="evenodd" d="M15.8358 2.92246C14.0904 1.177 11.7631 0.246094 9.31946 0.246094C4.19946 0.246094 0.010376 4.43518 0.010376 9.55518C0.010376 11.1843 0.475837 12.8134 1.29038 14.2097L0.010376 18.8643L4.89766 17.5843C6.29402 18.2824 7.80673 18.7479 9.31946 18.7479C14.4395 18.7479 18.6285 14.5588 18.6285 9.43881C18.6285 6.99518 17.5813 4.66791 15.8358 2.92246ZM9.31946 17.2352C7.9231 17.2352 6.52674 16.8861 5.36311 16.1879L5.13036 16.0715L2.22128 16.8861L3.03583 14.0934L2.80309 13.7443C1.98855 12.4643 1.63946 11.0679 1.63946 9.67154C1.63946 5.48245 5.13037 1.99155 9.31946 1.99155C11.414 1.99155 13.2758 2.80609 14.7886 4.20245C16.3013 5.71518 16.9995 7.577 16.9995 9.67154C16.9995 13.7443 13.6249 17.2352 9.31946 17.2352ZM13.5086 11.417C13.2758 11.3006 12.1122 10.7188 11.8795 10.7188C11.6467 10.6024 11.5304 10.6024 11.414 10.8352C11.2976 11.0679 10.8322 11.5334 10.7158 11.7661C10.5995 11.8824 10.4831 11.8824 10.2504 11.8824C10.0176 11.7661 9.31947 11.5334 8.38856 10.7188C7.69038 10.137 7.22492 9.32245 7.10856 9.08972C6.99219 8.857 7.10857 8.74063 7.22493 8.62427C7.34129 8.5079 7.45764 8.39154 7.57401 8.27518C7.69037 8.15881 7.69038 8.04245 7.80675 7.92609C7.92311 7.80972 7.80675 7.69336 7.80675 7.577C7.80675 7.46063 7.34129 6.297 7.10856 5.83154C6.99219 5.48245 6.75947 5.48245 6.64311 5.48245C6.52675 5.48245 6.41036 5.48245 6.17763 5.48245C6.06127 5.48245 5.82854 5.48245 5.59581 5.71518C5.36308 5.94791 4.78129 6.52972 4.78129 7.69336C4.78129 8.85699 5.59582 9.90427 5.71218 10.137C5.82855 10.2534 7.34126 12.697 9.66853 13.6279C11.6467 14.4424 11.9958 14.2097 12.4613 14.2097C12.9267 14.2097 13.8576 13.6279 13.974 13.1624C14.2067 12.5806 14.2067 12.1152 14.0904 12.1152C13.974 11.5334 13.7413 11.5334 13.5086 11.417Z" fill="white"/>
</svg>
