<svg width="25" height="26" viewBox="0 0 25 26" fill="none" xmlns="http://www.w3.org/2000/svg">
<rect width="25" height="25" transform="translate(0 0.619873)" fill="white"/>
<path fill-rule="evenodd" clip-rule="evenodd" d="M20.0086 5.47699C17.9973 3.46574 15.3156 2.39307 12.4999 2.39307C6.6002 2.39307 1.77319 7.22008 1.77319 13.1198C1.77319 14.9969 2.30954 16.8741 3.24812 18.4831L1.77319 23.8464L7.40472 22.3715C9.01373 23.176 10.7568 23.7124 12.4999 23.7124C18.3996 23.7124 23.2266 18.8854 23.2266 12.9857C23.2266 10.1699 22.0198 7.48824 20.0086 5.47699ZM12.4999 21.9693C10.8909 21.9693 9.28188 21.567 7.94105 20.7625L7.67286 20.6284L4.32077 21.567L5.25938 18.349L4.99119 17.9468C4.05261 16.4718 3.65036 14.8628 3.65036 13.2538C3.65036 8.42683 7.67287 4.40432 12.4999 4.40432C14.9134 4.40432 17.0587 5.34291 18.8018 6.95191C20.5449 8.695 21.3494 10.8403 21.3494 13.2538C21.3494 17.9468 17.461 21.9693 12.4999 21.9693ZM17.3269 15.2651C17.0587 15.131 15.7179 14.4606 15.4497 14.4606C15.1816 14.3265 15.0475 14.3265 14.9134 14.5947C14.7793 14.8628 14.243 15.3992 14.1089 15.6673C13.9748 15.8014 13.8407 15.8014 13.5725 15.8014C13.3044 15.6673 12.4999 15.3992 11.4272 14.4606C10.6227 13.7902 10.0864 12.8516 9.9523 12.5834C9.81822 12.3153 9.95231 12.1812 10.0864 12.0471C10.2205 11.913 10.3545 11.7789 10.4886 11.6448C10.6227 11.5108 10.6227 11.3767 10.7568 11.2426C10.8909 11.1085 10.7568 10.9744 10.7568 10.8403C10.7568 10.7063 10.2205 9.36542 9.9523 8.82908C9.81822 8.42683 9.55006 8.42683 9.41598 8.42683C9.28189 8.42683 9.14778 8.42683 8.87961 8.42683C8.74553 8.42683 8.47736 8.42683 8.20919 8.695C7.94102 8.96316 7.27063 9.63358 7.27063 10.9744C7.27063 12.3153 8.2092 13.522 8.34328 13.7902C8.47737 13.9243 10.2204 16.74 12.9021 17.8127C15.1815 18.7513 15.5838 18.4831 16.1202 18.4831C16.6565 18.4831 17.7291 17.8127 17.8632 17.2763C18.1314 16.6059 18.1314 16.0696 17.9973 16.0696C17.8632 15.3992 17.5951 15.3992 17.3269 15.2651Z" fill="#2F2F2F"/>
</svg>
