<svg width="247" height="89" viewBox="0 0 247 89" fill="none" xmlns="http://www.w3.org/2000/svg">
<path fill-rule="evenodd" clip-rule="evenodd" d="M16.7794 0L12.5819 11.597H70.7495L74.947 0H16.7794ZM10.4819 17.3928L6.28443 28.9872H64.452L68.6495 17.3928H10.4819ZM4.19747 34.7856L0 46.38H58.1676L62.3625 34.7856H4.19747Z" fill="#A2A2A2"/>
<path fill-rule="evenodd" clip-rule="evenodd" d="M123.79 50.7996V51.0443C126.448 52.0284 128.987 53.7493 130.318 54.8544C134.428 58.2962 136.243 62.8431 136.243 68.7425C136.243 78.4548 131.164 85.4593 122.822 87.6723C120.282 88.409 117.624 88.6564 112.665 88.6564H87.399V17.616H109.766C114.36 17.616 117.502 17.8607 120.282 18.5975C128.384 20.8104 133.703 26.4652 133.703 35.4353C133.703 40.2296 132.011 44.2871 129.231 46.9894C128.022 48.2183 126.329 49.6944 123.79 50.7996ZM101.423 58.2962V76.9786H111.096C113.995 76.9786 116.656 76.7339 118.592 74.8893C120.526 73.0447 121.372 70.7108 121.372 67.6374C121.372 65.3034 120.766 63.0905 119.558 61.4933C117.502 58.9119 114.963 58.2962 110.612 58.2962H101.423ZM101.301 46.0053H109.16C111.577 46.0053 112.786 46.0053 113.995 45.6369C117.262 44.6528 119.317 41.7058 119.317 37.6482C119.317 32.8567 117.14 30.7647 113.995 29.7833C112.665 29.4149 111.337 29.2912 108.676 29.2912H101.301V46.0053ZM157.279 88.6564V29.5359H137.089V17.616H193.188L189.199 29.5359H171.303V88.6564H157.279ZM197.539 88.6564V17.616H243L239.011 29.5359H211.444V45.2685H222.688C231.756 45.2685 236.472 47.4815 239.736 50.3075C242.275 52.5205 246.626 57.4357 246.626 67.148C246.626 76.7339 242.153 82.0175 238.405 84.7226C234.054 87.7933 229.46 88.6564 220.149 88.6564H197.539ZM211.444 76.7339H221.964C225.952 76.7339 228.37 75.7497 230.063 73.5368C230.909 72.4317 232.118 70.4634 232.118 66.7769C232.118 63.0905 230.909 60.5091 228.492 58.6646C227.042 57.5594 225.106 56.9464 221.842 56.9464H211.444V76.7339Z" fill="#9E9E9E"/>
</svg>
