<svg width="277" height="52" viewBox="0 0 277 52" fill="none" xmlns="http://www.w3.org/2000/svg">
<path d="M260.782 39.5416C260.71 40.1143 260.495 41.621 258.547 41.8167H241.441C239.494 41.621 239.138 40.1143 239.065 39.5416V12.9305C239.137 12.3564 239.407 11.136 241.355 10.9403H258.555C260.503 11.136 260.71 12.3564 260.782 12.9305V39.5416ZM266.705 0.913939H233.142C228.099 1.32392 223.839 3.90125 223.271 9.66709V42.6133C223.839 48.3792 228.099 51.4338 233.142 51.8438H266.705C271.748 51.4338 276.007 48.3792 276.576 42.6133V9.66709C276.007 3.90125 271.748 1.32392 266.705 0.913939ZM130.874 10.9403H115.869V0.913939H161.673V10.9403H146.669V51.8438H130.874V10.9403ZM111.132 10.9403V0.913939H70.0661V51.8438L111.678 51.8328L111.693 41.8174H85.9004L85.903 30.9093H111.132V20.9076H85.903V10.9403L111.132 10.9403ZM202.738 18.8344C202.738 19.9366 202.467 20.9035 200.503 20.9035H182.206V10.9067H200.527C202.755 10.9067 202.738 12.3763 202.738 13.2938V18.8344ZM207.114 32.0451C212.041 31.6475 216.953 28.2681 216.953 22.7179V10.1444C216.381 4.40531 212.108 1.30607 207.043 0.897461H166.411L166.412 51.8438H182.206V32.0451H188.492L198.758 51.8438H216.921L204.696 32.0451H207.114ZM37.3727 51.8438L47.9546 19.8535V51.8438H63.7489V0.913939H42.4272L32.1607 26.3795L21.8942 0.913939H0.57251V51.8438H16.3668V19.8535L27.027 51.8438H37.3727Z" fill="#A2A2A2"/>
</svg>
