<svg width="295" height="91" viewBox="0 0 295 91" fill="none" xmlns="http://www.w3.org/2000/svg">
<path d="M90.6082 22.9387H82.7386L80.7712 25.2798C80.3777 25.6699 80.5744 25.865 80.9679 26.0601L83.5255 27.2307L90.8049 23.9141C91.3951 23.719 91.1984 22.9387 90.6082 22.9387ZM61.2939 61.1762H51.6536C49.096 62.7369 48.309 63.1271 44.9644 64.4927C44.7677 64.4927 44.5709 64.8829 44.7677 65.078L53.4243 89.074H58.3428L50.4732 67.0289C55.5884 67.0289 67.9831 65.6633 74.6722 54.9334C72.5081 58.0548 67.5896 61.1762 61.2939 61.1762ZM75.0657 26.6454C74.2787 27.4257 73.0983 27.4257 72.5081 26.6454C71.7211 25.865 71.7211 24.6945 72.5081 24.1092C73.295 23.3289 74.4755 23.3289 75.0657 24.1092C73.4918 22.5485 70.9342 22.5485 69.557 24.1092C68.1798 25.6699 67.983 28.011 69.557 29.5717C71.1309 31.1324 73.6885 31.1324 75.0657 29.5717C76.4429 28.011 76.6396 25.6699 75.0657 24.1092C75.6559 24.8896 75.6559 25.865 75.0657 26.6454ZM55.9819 70.3454L62.6711 89.074H67.5896L60.5069 69.37C59.3265 69.7602 57.7526 69.9553 55.9819 70.3454ZM62.6711 46.9347C63.2613 46.1543 63.6548 45.374 64.245 44.3985C64.0482 44.2034 63.8515 44.3985 63.6548 44.5936C53.621 55.1285 43.9807 56.4941 36.5046 56.4941H25.0937C24.7002 56.4941 24.5034 56.1039 24.7002 55.7137C33.5535 43.6182 43.1938 34.0588 50.4732 28.011L31.3893 43.8133C29.8154 44.9838 28.0448 45.7642 25.6839 45.7642H1.68155C1.09133 45.7642 1.28807 46.3494 1.28807 46.7396C2.86199 51.8119 7.58376 56.4941 15.4534 56.4941L9.74791 62.1517C9.55116 62.3468 9.55116 62.932 10.1414 62.932H31.5861C46.9318 62.932 56.5721 56.299 62.6711 46.9347Z" fill="#9A9A9A"/>
<path d="M276.791 89.0699H294.3V35.4203H276.791V55.1243H260.264V35.4203H242.754V89.0699H260.264V68.7806H276.791V89.0699ZM69.6229 29.5676C68.049 28.0069 68.049 25.6658 69.6229 24.1051C71.1968 22.5444 73.7545 22.5444 75.1317 24.1051C76.5088 25.6658 76.7056 28.0069 75.1317 29.5676C73.5577 31.1283 71.0001 31.1283 69.6229 29.5676ZM74.5414 54.9292C81.2306 44.1993 83.5915 27.2265 83.5915 27.2265L81.0339 26.056C80.6404 25.8609 80.6404 25.6658 80.8371 25.2756L82.8045 22.9345C81.6241 20.5935 77.2958 16.6917 71.0001 16.6917C67.262 16.6917 63.9175 17.6671 60.9664 19.618C60.9664 19.618 56.6381 22.5444 50.5391 27.8118C43.2597 34.0546 33.6194 43.4189 24.7661 55.5145C24.5694 55.9046 24.7661 56.2948 25.1596 56.2948H36.5705C44.0467 56.2948 53.687 54.9292 63.7207 44.3944C63.9175 44.1993 64.1142 44.1993 64.3109 44.1993C64.5077 44.3944 64.5077 44.5895 64.5077 44.7845C62.9338 48.6863 58.999 56.2948 51.7196 60.977H61.3598C67.8523 60.977 72.574 58.0506 74.5414 54.9292ZM64.7044 67.8051L72.1805 88.8748H93.4285C89.1002 75.8038 84.3785 63.7082 79.8534 52.5881C76.3121 60.1966 72.9675 63.9033 64.7044 67.8051ZM0.173584 89.0699H21.6183L28.8977 66.6346H8.0432C5.48557 73.2676 2.92795 80.681 0.173584 89.0699ZM29.0944 40.8828L39.9151 32.1037C42.276 25.8609 44.6369 19.618 46.9978 14.3506C48.1782 17.0818 49.3587 20.0082 50.5391 22.9345C56.4413 18.0573 60.1794 15.131 65.0979 13.7653C62.1468 7.32738 59.9827 2.64523 58.999 0.694336H34.9966C33.0292 4.9863 25.3563 20.7885 16.3063 42.0533H24.9629C26.7335 42.0533 28.1107 41.8582 29.0944 40.8828ZM161.697 83.0221L162.878 88.8748H177.043V35.4203H159.533V72.6823C157.959 74.4381 155.008 76.389 152.254 76.389C147.335 76.389 144.778 73.6578 144.778 68.5855V35.4203H127.268V72.6823C125.694 74.4381 122.349 76.389 119.398 76.389C114.873 76.389 112.316 73.6578 112.316 68.5855V35.4203H94.8057V70.9265C94.8057 83.8024 100.511 90.2404 112.316 90.2404C120.775 90.2404 125.891 87.119 129.825 83.0221C132.58 87.8993 137.498 90.2404 144.778 90.2404C153.238 90.0453 157.959 87.119 161.697 83.0221ZM217.375 72.4873C215.801 74.2431 213.243 76.194 208.915 76.194C204.193 76.194 201.636 71.902 201.636 63.5131C201.636 53.1734 204.39 48.1011 210.096 48.1011C213.44 48.1011 215.014 48.2962 217.375 48.8814V72.4873ZM202.816 90.0453H203.406C211.276 90.0453 216.588 87.314 219.539 83.0221L220.523 88.8748H234.885V37.5662C229.179 35.8104 222.49 34.2497 210.292 34.2497C192.782 34.2497 183.339 44.7845 183.339 64.2935C183.339 82.2417 190.028 90.0453 202.816 90.0453Z" fill="#BABABA"/>
</svg>
