<svg width="233" height="158" viewBox="0 0 233 158" fill="none" xmlns="http://www.w3.org/2000/svg">
<g clip-path="url(#clip0_144_21)">
<path d="M87.23 28.5801C83.89 13.9301 75.5 2.02007 74.35 0.0700684C72.52 2.81007 65.84 13.3201 62.44 24.9901C58.73 38.0001 58.19 49.5401 59.47 60.9101C60.74 72.2801 65.54 83.9501 65.54 83.9501C68.09 90.0801 71.92 96.6501 74.41 99.8701C78.06 95.1301 86.45 80.9701 89.06 62.4901C90.52 52.2201 90.58 43.2301 87.23 28.5801ZM74.35 96.2301C72.71 93.1301 70.15 87.2301 69.91 78.1101C69.84 69.3001 73.37 61.7601 74.4 60.1801C75.32 61.7601 78.35 68.3301 78.72 77.3201C78.96 86.1301 76.05 93.0601 74.35 96.2301ZM86.26 53.4401C86.13 59.0301 85.47 64.9201 84.62 68.4501C84.93 62.3701 84.2 53.8101 82.8 47.1201C81.4 40.4301 77.45 29.2501 74.29 24.0801C71.38 29.0101 67.78 38.6701 65.9 47.0501C64.01 55.4401 63.95 65.5901 63.95 68.6301C63.45 66.0701 62.19 56.9201 62.55 47.7201C62.84 40.1401 64.62 32.3401 65.59 28.7601C69.3 16.7801 73.49 9.13007 74.28 7.91007C75.07 9.13007 80.35 18.5501 83.1 28.4501C85.83 38.3501 86.38 47.8301 86.26 53.4301V53.4401Z" fill="#BABABA"/>
<path d="M101.49 113.05C101.49 109.23 101.96 103.3 109.61 103.3H118.66C126.31 103.3 126.78 109.23 126.78 113.05V148.17C126.78 151.99 126.31 157.93 118.66 157.93H109.61C101.96 157.93 101.49 152 101.49 148.17V113.05ZM115.85 111.1C115.85 110.16 115.15 109.31 114.13 109.31C113.51 109.31 112.41 109.7 112.41 111.1V150.12C112.41 151.52 113.5 151.91 114.13 151.91C115.14 151.91 115.85 151.05 115.85 150.12V111.1Z" fill="#BABABA"/>
<path d="M132.86 103.3H153.7V109.31H143.79V157.93H132.87V103.3H132.86Z" fill="#BABABA"/>
<path d="M158.38 103.3H169.3V126.79H169.69L173.28 103.3H184.2L178.66 129.52L185.29 157.93H174.37L169.69 132.8H169.3V157.93H158.38V103.3Z" fill="#BABABA"/>
<path d="M187.48 130.07H200.59V137.72H187.48V130.07Z" fill="#BABABA"/>
<path d="M206.84 151.68C206.84 144.81 209.49 140.76 215.27 133.65C220.27 127.56 221.2 124.68 221.2 120.54V111.1C221.2 109.69 220.11 109.31 219.48 109.31C218.85 109.31 217.76 109.7 217.76 111.1V119.68H206.84V113.05C206.84 109.23 207.31 103.3 214.96 103.3H224.01C231.66 103.3 232.13 109.23 232.13 113.05V120.54C232.13 128.73 229.48 131.86 225.81 136.54C219.18 144.89 217.46 147.7 217.77 151.91H232.13V157.92H206.85V151.68H206.84Z" fill="#BABABA"/>
<path d="M80.03 103.28H54.6V120.35C54.6 120.35 54.64 120.3 54.66 120.28C60.65 114.29 70.37 114.29 76.37 120.28C82.36 126.28 82.36 135.99 76.37 141.99C76.35 142.02 76.32 142.03 76.29 142.06C76.26 142.09 76.23 142.11 76.2 142.14C70.23 148.08 62.41 151.05 54.6 151.05C46.79 151.05 38.91 148.06 32.92 142.07C22.37 131.52 21.12 115.2 29.16 103.28C30.24 101.67 31.49 100.14 32.92 98.7201C38.91 92.7301 46.75 89.7401 54.6 89.7401V48.6901C24.44 48.6901 0 73.1301 0 103.28C0 133.43 24.44 157.87 54.59 157.87C70.31 157.87 84.47 151.22 94.43 140.59V103.28H80.02H80.03Z" fill="#BABABA"/>
</g>
<defs>
<clipPath id="clip0_144_21">
<rect width="232.12" height="157.86" fill="white" transform="translate(0 0.0700684)"/>
</clipPath>
</defs>
</svg>
