<svg width="259" height="174" viewBox="0 0 259 174" fill="none" xmlns="http://www.w3.org/2000/svg">
<path d="M48.6957 71.5889C43.6177 75.5787 32.972 83.8304 31.0133 84.9185L1.61618 67.8329C0.279154 67.0558 -0.163733 65.3352 0.631972 64.0091C1.23311 63.0073 2.39772 62.4899 3.5441 62.7152L48.6957 71.5889Z" fill="#BABABA"/>
<path d="M124.865 19.0861C85.9779 17.0607 60.4109 42.9956 50.6202 58.9547C49.5576 60.6867 47.2179 61.1904 45.6139 59.9428C44.5261 59.0967 44.0784 57.6631 44.5661 56.3741C51.9274 36.9199 76.8624 1.57372 124.865 0.316C172.054 -0.920381 199.227 39.2073 208.37 62.6426C209.177 64.7106 208.012 66.9729 205.898 67.6495C204.159 68.2063 202.263 67.5091 201.299 65.9578L196.682 58.5313C190.153 46.2897 166.65 21.2624 124.865 19.0861Z" fill="#BABABA"/>
<path d="M125.809 153.266C167.457 155.436 198.822 121.702 205.072 96.9694C205.629 94.7634 208.322 93.6614 210.118 95.0583C210.827 95.6103 211.251 96.4409 211.209 97.3389C210.032 122.454 178.007 171.932 125.809 173.3C75.4453 174.619 46.4438 131.791 36.6848 106.779C35.8237 104.572 37.067 102.157 39.3234 101.435C41.1802 100.841 43.2033 101.585 44.2325 103.241L49.1596 111.167C56.1277 124.232 81.2131 150.944 125.809 153.266Z" fill="#BABABA"/>
<path d="M88.0094 135.458L44.9213 96.9865C44.2384 96.3767 44.666 95.246 45.5815 95.2406L173.925 94.4879C174.475 94.4847 174.919 94.0379 174.919 93.4879V91.3592C174.919 90.8069 174.472 90.3592 173.919 90.3592H129.674C129.121 90.3592 128.674 89.9115 128.674 89.3592V87.0776C128.674 86.2752 127.776 85.7996 127.112 86.2501L121.311 90.1867C121.145 90.2991 120.95 90.3592 120.749 90.3592H110.284C109.458 90.3592 108.988 89.4137 109.487 88.7551L120.757 73.8891C120.946 73.6397 121.241 73.4932 121.553 73.4932H131.482C132.034 73.4932 132.482 73.9409 132.482 74.4932V76.3897C132.482 77.2138 133.423 77.6841 134.082 77.1897L138.744 73.6932C138.917 73.5633 139.128 73.4932 139.344 73.4932H150.819C151.655 73.4932 152.122 74.4577 151.604 75.1134L144.917 83.5703C144.398 84.2259 144.865 85.1905 145.701 85.1905H183.713C184.265 85.1905 184.713 85.6382 184.713 86.1905V94.489C184.713 94.9414 184.409 95.3374 183.972 95.4548L112.044 114.779C111.889 114.82 111.746 114.899 111.627 115.008L89.3516 135.449C88.973 135.796 88.3927 135.8 88.0094 135.458Z" fill="#BABABA"/>
<path d="M112.15 75.0644L101.804 89.9304C101.617 90.1991 101.31 90.3592 100.983 90.3592H90.0328C89.4805 90.3592 89.0328 89.9115 89.0328 89.3592V87.0776C89.0328 86.2752 88.1352 85.7996 87.4713 86.2501L81.67 90.1867C81.5044 90.2991 81.3088 90.3592 81.1085 90.3592H70.6431C69.8167 90.3592 69.347 89.4137 69.8462 88.7551L81.1157 73.8891C81.3047 73.6397 81.5996 73.4932 81.9126 73.4932H91.8412C92.3935 73.4932 92.8412 73.9409 92.8412 74.4932V76.3897C92.8412 77.2138 93.782 77.6841 94.4412 77.1897L99.1034 73.6932C99.2765 73.5633 99.487 73.4932 99.7034 73.4932H111.329C112.137 73.4932 112.612 74.4014 112.15 75.0644Z" fill="#BABABA"/>
<path d="M37.0912 94.0482H18.8859C16.8338 94.0482 15.1702 92.3846 15.1702 90.3325C15.1702 88.2804 16.8338 86.6168 18.8859 86.6168H24.8504C25.6778 86.6168 26.4923 86.8222 27.2209 87.2144L31.2561 89.3873C31.4018 89.4657 31.5647 89.5068 31.7302 89.5068H33.7924C34.0307 89.5068 34.2611 89.4217 34.4422 89.2669L75.1664 54.4477C75.3475 54.2929 75.578 54.2078 75.8163 54.2078H90.0465C90.892 54.2078 91.3559 55.1919 90.8179 55.8441L62.3293 90.3817C62.1393 90.612 61.8564 90.7454 61.5578 90.7454H52.3263C51.4568 90.7454 51.0015 89.7121 51.5884 89.0705L64.0066 75.4933C64.5935 74.8516 64.1383 73.8184 63.2687 73.8184H61.1639C60.9232 73.8184 60.6906 73.9052 60.5088 74.0629L37.7464 93.8036C37.5645 93.9613 37.3319 94.0482 37.0912 94.0482Z" fill="#BABABA"/>
<path d="M155.128 73.9927V78.5984C155.128 79.1507 155.576 79.5984 156.128 79.5984H207.386C207.938 79.5984 208.386 80.0461 208.386 80.5984V83.1397C208.386 83.692 207.938 84.1397 207.386 84.1397H192.872C192.32 84.1397 191.872 84.5874 191.872 85.1397V89.5389C191.872 90.0912 192.32 90.5389 192.872 90.5389H249.362C254.207 90.5389 258.135 86.6111 258.135 81.7658C258.135 76.9205 254.207 72.9927 249.362 72.9927H156.128C155.576 72.9927 155.128 73.4404 155.128 73.9927Z" fill="#BABABA"/>
</svg>
