<svg width="284" height="150" viewBox="0 0 284 150" fill="none" xmlns="http://www.w3.org/2000/svg">
<path d="M13.1107 124.326C16.6927 124.326 19.7132 125.549 22.1595 128.008C24.6058 130.467 25.8289 133.437 25.8289 136.945C25.8289 140.439 24.6058 143.41 22.147 145.831C19.6882 148.253 16.6803 149.463 13.1107 149.463C9.5286 149.463 6.50817 148.253 4.04939 145.831C1.59062 143.41 0.379948 140.452 0.392429 136.945C0.392429 133.45 1.61558 130.467 4.04939 128.008C6.48321 125.562 9.50363 124.326 13.1107 124.326ZM13.0857 145.132C15.4322 145.132 17.4042 144.321 18.9893 142.698C20.5744 141.076 21.3732 139.129 21.3732 136.845C21.3732 134.586 20.5744 132.651 18.9893 131.054C17.4042 129.456 15.4446 128.657 13.1231 128.657C10.7767 128.657 8.81717 129.456 7.23207 131.054C5.65946 132.651 4.87314 134.586 4.87314 136.845C4.87314 139.154 5.65946 141.101 7.23207 142.711C8.80469 144.333 10.7517 145.132 13.0857 145.132Z" fill="#BABABA"/>
<path d="M38.4724 46.9934C38.4724 46.9934 38.9966 50.1012 43.5771 54.4072C46.5601 57.2154 50.0548 59.0127 53.6244 60.1984C69.6127 65.4904 89.233 60.6602 102.288 55.9174C114.757 51.3992 126.776 44.6594 126.776 44.6594C126.776 44.6594 160.5 61.5588 189.044 65.4904C216.989 69.3346 241.902 58.7007 245.896 41.8886C245.908 41.8387 251.263 49.9764 240.616 62.7695C230.257 75.2132 213.395 80.4053 188.994 77.3349C161.162 73.8278 126.776 56.5414 126.776 56.5414C126.776 56.5414 104.435 69.8588 81.3325 73.5157C68.8763 75.5252 57.3313 74.0899 49.8177 70.5452C47.1093 69.2722 45.8861 68.0615 44.6505 67.1379C35.2023 60.1235 38.4724 46.9934 38.4724 46.9934Z" fill="#BABABA"/>
<path d="M38.4724 63.4062C38.4724 63.4062 38.9966 66.514 43.5771 70.82C46.5601 73.6282 50.0548 75.4255 53.6244 76.6112C69.6127 81.9032 89.233 77.0605 102.288 72.3302C114.757 67.812 126.776 61.0723 126.776 61.0723C126.776 61.0723 160.5 77.9717 189.044 81.9032C216.989 85.7474 241.902 75.1135 245.896 58.3015C245.908 58.2515 251.263 66.3892 240.616 79.1823C230.257 91.626 213.395 96.8181 188.994 93.7478C161.162 90.2406 126.776 72.9543 126.776 72.9543C126.776 72.9543 104.435 86.2716 81.3325 89.9286C68.8763 91.938 57.3313 90.5027 49.8177 86.9581C47.1093 85.685 45.8861 84.4743 44.6505 83.5507C35.2023 76.5239 38.4724 63.4062 38.4724 63.4062Z" fill="#BABABA"/>
<path d="M51.9021 18.9859C51.9021 18.9859 34.3787 20.7083 38.5723 41.04C41.3556 54.295 59.3159 61.0223 83.0674 56.7288C101.964 53.3089 115.019 46.0699 135.064 36.447C150.952 28.821 150.977 28.2095 175.315 16.5396C201.114 4.18335 215.105 7.26618 223.492 11.0355C229.021 13.5192 233.989 18.6739 238.544 27.2484C238.544 27.2484 240.417 14.8422 231.842 7.41595C223.28 -0.0103046 200.24 -3.48005 175.215 7.89023C145.96 21.1701 125.878 30.2688 108.828 37.8698C85.2017 48.3914 66.6673 46.307 57.8556 42.1384C49.0564 37.9697 42.5413 30.194 51.9021 18.9859Z" fill="#BABABA"/>
<path d="M50.2547 30.3686C50.2547 30.3686 48.5198 22.5055 59.2411 17.538C69.9498 12.5706 97.1337 11.2725 126.414 26.6368L112.685 32.5154C112.698 32.5154 74.7176 9.28804 50.2547 30.3686Z" fill="#BABABA"/>
<path d="M130.77 42.4754L144.063 35.6607C144.063 35.6607 211.747 68.2614 237.858 35.1365C237.858 35.1365 244.835 25.9005 238.694 12.9701C238.694 12.9701 251.412 26.1002 244.972 39.48C238.532 52.8722 222.643 63.5934 194.486 61.5216C172.707 59.9365 146.409 49.7644 130.77 42.4754Z" fill="#BABABA"/>
<path d="M40.4193 124.751L49.9798 148.877H45.0872L38.4972 130.941L31.9072 148.877H26.9772L36.5377 124.751H40.4193Z" fill="#BABABA"/>
<path d="M54.0736 124.751H58.5419V141.712L69.3006 124.751H73.7688V148.877H69.3006V131.915L58.5419 148.877H54.0736V124.751Z" fill="#BABABA"/>
<path d="M79.8346 148.889V124.763H85.8879L92.6153 143.21L99.3176 124.763H105.396V148.889H100.928V130.829L94.4999 148.889H90.7181L84.2904 130.829V148.889H79.8346Z" fill="#BABABA"/>
<path d="M111.462 148.889V124.763H131.082V148.889H126.614V129.094H115.93V148.889H111.462Z" fill="#BABABA"/>
<path d="M137.148 124.751H141.616V141.712L152.375 124.751H156.843V148.877H152.375V131.915L141.616 148.877H137.148V124.751Z" fill="#BABABA"/>
<path d="M162.896 124.751H167.365V141.712L178.123 124.751H182.591V148.877H178.123V131.915L167.365 148.877H162.896V124.751ZM166.878 118.885H170.635C170.697 119.384 170.909 119.783 171.284 120.07C171.658 120.37 172.145 120.507 172.756 120.507C173.343 120.532 173.817 120.382 174.192 120.083C174.566 119.783 174.791 119.371 174.878 118.872H178.622C178.41 120.22 177.774 121.318 176.713 122.167C175.664 123.016 174.341 123.44 172.756 123.44C171.146 123.44 169.811 123.016 168.762 122.167C167.702 121.331 167.077 120.232 166.878 118.885Z" fill="#BABABA"/>
<path d="M211.223 131.665H206.131C205.369 130.704 204.471 129.968 203.422 129.444C202.374 128.919 201.263 128.657 200.065 128.657C197.694 128.657 195.734 129.468 194.199 131.104C192.651 132.739 191.89 134.636 191.89 136.807C191.89 139.091 192.689 141.051 194.274 142.698C195.859 144.346 197.806 145.145 200.115 145.132C201.226 145.132 202.287 144.908 203.298 144.446C204.309 143.984 205.182 143.285 205.919 142.324H211.098C210.05 144.521 208.577 146.256 206.643 147.541C204.72 148.827 202.499 149.463 199.978 149.463C196.433 149.463 193.45 148.24 191.041 145.806C188.632 143.372 187.422 140.377 187.422 136.807C187.422 133.35 188.632 130.405 191.054 127.971C193.475 125.537 196.47 124.314 200.04 124.314C202.536 124.314 204.77 124.963 206.742 126.248C208.714 127.559 210.212 129.356 211.223 131.665Z" fill="#BABABA"/>
<path d="M215.729 148.889V124.763H220.197V135.235L227.698 124.763H233.028L223.966 136.633L233.015 148.889H227.698L220.197 138.318V148.889H215.729Z" fill="#BABABA"/>
<path d="M237.571 124.751H242.039V141.712L252.798 124.751H257.266V148.877H252.798V131.915L242.039 148.877H237.571V124.751Z" fill="#BABABA"/>
<path d="M263.332 124.751H267.8V141.712L278.559 124.751H283.027V148.877H278.559V131.915L267.8 148.877H263.332V124.751ZM267.313 118.885H271.07C271.132 119.384 271.345 119.783 271.719 120.07C272.093 120.357 272.58 120.507 273.192 120.507C273.778 120.532 274.253 120.382 274.627 120.083C275.002 119.783 275.226 119.371 275.314 118.872H279.058C278.846 120.22 278.209 121.318 277.148 122.167C276.1 123.016 274.777 123.44 273.192 123.44C271.582 123.44 270.246 123.016 269.198 122.167C268.137 121.331 267.513 120.232 267.313 118.885Z" fill="#BABABA"/>
</svg>
